<?xml version="1.0" encoding="UTF-8"?>
<svg id="Layer_1" xmlns="http://www.w3.org/2000/svg" version="1.1" viewBox="0 0 256 257.47">
  <!-- Generator: Adobe Illustrator 29.8.5, SVG Export Plug-In . SVG Version: 2.1.1 Build 2)  -->
  <defs>
    <style>
      .st0 {
        fill: #fff;
      }

      .st0, .st1, .st2, .st3 {
        fill-rule: evenodd;
      }

      .st1 {
        fill: #0a0a0a;
      }

      .st3 {
        fill: #ff5f1f;
      }
    </style>
  </defs>
  <g id="Logo_x2F_EST1_x5F_Karting_x2F_track_x5F_logo_x2B_shape_x5F_aravete-vertical_x5F_positive-Copy-6">
    <path id="EST" class="st2" d="M104.96,176.18l2.85-5.61h-60.66c-2.86,0-5.48,1.6-6.78,4.16l-2.71,5.34c-1.59,3.13.06,6.94,3.44,7.91l19.25,5.5-1.67,2.61H11.6v-4.33h13.99l4.05-7.97H11.6v-4.55h20.36l4.41-8.66H3.8c-2.1,0-3.8,1.7-3.8,3.81v26.56c0,2.1,1.7,3.81,3.8,3.81h58.27c2.86,0,5.48-1.61,6.78-4.16l2.75-5.4c1.59-3.12-.05-6.92-3.41-7.9l-19.28-5.62,1.53-2.43h28.45v25.52h12.2v-25.52h8.89c2.1,0,4.02-1.18,4.97-3.05h0v-.02ZM252.2,170.57h-92.64c-2.1,0-4.02,1.18-4.97,3.05l-15.84,31.13h113.45c2.1,0,3.8-1.71,3.8-3.81v-26.56c0-2.1-1.7-3.81-3.8-3.81h0Z"/>
    <path id="Karting" class="st0" d="M240.71,180.54c.81,0,1.54.05,2.19.14.65.09,1.27.23,1.86.43v2.42c-.58-.21-1.2-.36-1.85-.45-.65-.09-1.31-.14-2-.14-1.6,0-2.74.39-3.41,1.18s-1,1.98-1,3.58c0,2.88,1.36,4.32,4.07,4.32.47,0,.94-.04,1.39-.11.45-.08.85-.18,1.2-.3v-3.13h-3.13v-1.8h5.52v6.58c-.46.29-1.1.56-1.92.79-.82.24-1.85.36-3.09.36-2.26,0-3.97-.59-5.14-1.78-1.17-1.18-1.75-2.83-1.75-4.93,0-2.23.59-3.98,1.78-5.25,1.18-1.27,2.95-1.91,5.29-1.91h0ZM161.88,180.75v5.7l5.18-5.7h3.24l-4.87,5.45,5.12,8h-3.01l-3.87-6.2-1.8,1.94v4.26h-2.82v-13.45h2.83ZM180,180.75l5.12,13.45h-2.92l-1.27-3.24h-4.95l-1.25,3.24h-2.95l5.14-13.45h3.09,0ZM194.15,180.75c1.55,0,2.68.41,3.41,1.22s1.09,1.91,1.09,3.29c0,.91-.23,1.69-.7,2.34s-1.12,1.13-1.97,1.42c.22.18.4.38.53.58.13.21.27.49.41.84l1.63,3.76h-2.92l-1.59-3.61c-.14-.31-.29-.52-.46-.65-.17-.13-.45-.19-.84-.19h-2.21v4.45h-2.82v-13.45h6.46-.02ZM211.46,180.75v2.17h-4.12v11.28h-2.82v-11.28h-4.14v-2.17h11.08ZM216.44,180.75v13.45h-2.82v-13.45h2.82ZM221.88,180.75l6.37,8.96v-8.96h2.82v13.45h-2.44l-6.37-8.96v8.96h-2.82v-13.45h2.44ZM178.43,183.38l-2.05,5.41h4.12l-2.07-5.41h0ZM193.59,183.09h-3.07v4.32h2.9c.74,0,1.32-.16,1.73-.49.42-.33.63-.88.63-1.66s-.18-1.3-.54-1.65c-.36-.35-.91-.52-1.65-.52Z"/>
    <path id="_x31_" class="st3" d="M131,163.31s-5.53,4.09-16.32,7.25l-4.41,8.66h14.87l-6.58,1.98c-1.46.44-2.67,1.46-3.37,2.81l-13.42,26.37h26.23l23.95-47.08h-20.95Z"/>
    <g id="Track">
      <g id="Track-Background">
        <polygon id="Fill-11" class="st1" points="227.41 234.69 221.6 246.08 232.99 246.08 238.8 234.69 227.41 234.69"/>
        <polygon id="Fill-13" class="st1" points="25.66 223.29 25.66 223.29 23 223.29 17.2 234.69 19.85 234.69 28.59 234.69 34.4 223.29 25.66 223.29"/>
        <polygon id="Fill-15" class="st1" points="5.81 234.69 0 246.08 11.39 246.08 17.2 234.69 5.81 234.69"/>
        <polygon id="Fill-18" class="st1" points="5.59 257.47 16.98 257.47 22.79 246.08 11.39 246.08 5.59 257.47"/>
        <polygon id="Fill-20" class="st1" points="216.01 234.69 227.4 234.69 233.21 223.29 45.79 223.29 39.99 234.69 28.59 234.69 22.79 246.08 34.18 246.08 28.38 257.47 215.79 257.47 221.6 246.08 210.21 246.08 216.01 234.69"/>
        <polygon id="Fill-22" class="st1" points="256 223.29 244.6 223.29 238.8 234.69 250.19 234.69 256 223.29"/>
        <polygon id="Fill-24" class="st1" points="244.39 246.08 232.99 246.08 227.19 257.47 238.58 257.47 244.39 246.08"/>
      </g>
      <g id="Aravete">
        <path id="Fill-26" class="st0" d="M74.95,241.63h3.6l-.8-4.73s-2.8,4.73-2.8,4.73ZM66.67,248.44l9.58-16.11h4.98l2.78,16.11h-4.9l-.58-3.43h-4.9l-2.05,3.43h-4.91Z"/>
        <path id="Fill-28" class="st0" d="M93.11,240.13h2.48c1.43,0,2.3-.69,2.6-2.08.03-.15.06-.29.08-.43.02-.13.03-.26.03-.38,0-.43-.13-.76-.38-.99-.25-.23-.68-.34-1.28-.34h-2.63l-.9,4.2v.02ZM86.65,248.44l3.4-16.11h8.38c1.53,0,2.7.39,3.5,1.16.8.78,1.2,1.81,1.2,3.09,0,.45-.05.94-.15,1.48-.23,1.08-.71,2.04-1.43,2.86-.72.83-1.58,1.45-2.58,1.89.17.15.29.33.38.54.08.21.17.5.25.86l.98,4.23h-4.9l-.9-3.88c-.07-.3-.18-.51-.35-.64s-.43-.19-.78-.19h-1.33l-.98,4.7h-4.7.01Z"/>
        <path id="Fill-30" class="st0" d="M110.81,241.63h3.6l-.8-4.73s-2.8,4.73-2.8,4.73ZM102.54,248.44l9.58-16.11h4.98l2.78,16.11h-4.9l-.58-3.43h-4.9l-2.05,3.43h-4.91Z"/>
        <polygon id="Fill-32" class="st0" points="124 248.44 121.22 232.33 125.97 232.33 127.47 242.98 133.48 232.33 138.55 232.33 128.97 248.44 124 248.44"/>
        <polygon id="Fill-34" class="st0" points="137.7 248.44 141.1 232.33 153.31 232.33 152.56 235.93 145.06 235.93 144.48 238.56 151.06 238.56 150.28 242.21 143.7 242.21 143.15 244.83 150.66 244.83 149.91 248.44 137.7 248.44"/>
        <polygon id="Fill-36" class="st0" points="156.96 248.44 159.64 235.83 155.11 235.83 155.83 232.33 169.59 232.33 168.87 235.83 164.34 235.83 161.66 248.44 156.96 248.44"/>
        <polygon id="Fill-38" class="st0" points="168.72 248.44 172.12 232.33 184.32 232.33 183.57 235.93 176.07 235.93 175.49 238.56 182.07 238.56 181.3 242.21 174.72 242.21 174.17 244.83 181.67 244.83 180.92 248.44 168.72 248.44"/>
      </g>
    </g>
    <g id="Shape">
      <path id="Track-shape" class="st3" d="M97.67.38c4.96.59,8.72,1.32,12.17,2.34,2.86.85,5.11,1.83,7.07,3.07,4.1,2.61,5.97,6.4,5.54,11.26-.23,2.63-1.07,5.27-2.73,8.54-.81,1.61-1.66,3.21-2.51,4.81-.61,1.15-1.23,2.31-1.83,3.47-1.76,3.41-3.07,6.98-3.99,10.94-.98,4.22-2.28,8.51-3.43,12.3l-.7,2.32c-1.17,3.89-2.36,7.77-3.54,11.66-1.72,5.61-3.43,11.21-5.09,16.84-.85,2.89-1.5,5.93-2.05,8.61l-.41,1.92c-.18.84-.18,1.75-.18,2.63,0,.52.13.8.21.86,2.58,1.43,4.73,2.1,6.96,2.19h.47c2.69,0,5.17-.89,7.82-2.8,2.63-1.9,4.79-4.26,6.74-6.53,1.07-1.24,2.12-2.49,3.15-3.75,2.25-2.71,4.29-5.15,6.57-7.52,3.07-3.2,5.71-6.79,8.27-10.26,1.29-1.75,2.32-3.14,3.38-4.51,3.16-4.09,5.96-7.41,9.35-10.33,3.23-2.78,6.07-4.38,9.21-5.21,2.25-.59,4.51-.59,7.46.02,2.91.59,6,1.36,8.87,3,3.24,1.85,5.09,4.28,5.64,7.43.44,2.63.05,5.38-1.17,8.19-1.29,3-3.14,5.89-5.84,9.06-2.43,2.86-4.9,5.68-7.37,8.5l-4.32,4.96c-2.18,2.52-4.46,5.22-6.21,8.24-.88,1.52-1.5,2.87-1.87,4.15-.26.86-.56,2.48.28,3.74.64.96,1.9,1.59,3.54,1.77,2.46.26,5,.17,8.43-.31,8.93-1.26,17.79-3.57,26.37-5.79l3.8-.98c7.37-1.9,14.81-3.81,22.12-5.58,4.34-1.05,7.9-1.54,11.21-1.54h.57c5.77.12,10.53.45,15.23,1.71,3.3.88,5.59,2.02,7.44,3.68,3.45,3.11,4.5,7,3.13,11.58-1.11,3.73-3.52,6.75-7.38,9.23-3.42,2.19-7.36,3.84-12.8,5.35-5.24,1.47-10.77,2.53-16.4,3.17-5.13.58-10.59,1.11-17.71,1.71-2.69.23-5.39.38-8.09.53l-3.71.21c-4.5.28-9.26,1.28-14.52,3.06-6.51,2.2-12.7,5.15-17.89,7.75l-7.01,3.55c-2.55,1.27-5.42,1.94-8.33,1.94-7.03,0-13.52-3.89-16.51-9.91-1.72-3.46-3.34-6.7-5.47-9.65-.97-1.34-2.08-2.7-3.64-3.51-.69-.36-1.26-.36-1.82,0l-1.61,1.03c-1.51.96-2.82,1.8-4.12,2.67l-4.55,3.12c-2.61,1.81-5.33,3.69-8.03,5.41-4.85,3.11-9.97,5.36-15.25,6.71-3.11.79-6.52,1.17-10.43,1.17l-1.55-.02c-1.97-.05-3.93-.07-5.89-.08l-7.35-.06c-3.59-.02-7.28-.04-10.87-.17-5.67-.2-10.72-.51-15.45-.94-6.07-.55-10.95-1.71-15.33-3.63-7.51-3.29-11.96-9.13-13.22-17.35-.18-1.18-.27-2.37-.36-3.55l-.13-1.63v-.32c.15-5.05,1.13-10.36,3-16.24,2.52-7.89,6.3-15.93,11.58-24.57,4.35-7.15,8.96-13.42,14.06-19.16,3.02-3.4,6.44-6.54,10.45-9.6,5.83-4.44,10.98-10.14,15.3-16.93,2.14-3.37,4.17-6.83,6.13-10.18l2.18-3.72c2.14-3.61,4.28-7.13,6.99-10.4,4.62-5.6,10.42-8.88,17.25-9.74,3.29-.42,6.79-.4,10.72.08h0ZM88.34,11.2c-4.03.51-7.23,2.35-10.08,5.8-2.2,2.66-4.09,5.77-6,8.99l-2.16,3.68c-2.02,3.46-4.13,7.05-6.35,10.54-5.02,7.89-11.05,14.54-17.92,19.78-3.44,2.62-6.35,5.29-8.89,8.15-4.67,5.25-8.89,11-12.89,17.58-4.82,7.9-8.24,15.16-10.49,22.2-1.52,4.77-2.33,9.01-2.47,12.94l.09,1.11c.07.92.13,1.83.26,2.72.7,4.56,2.66,7.16,6.74,8.94,3.26,1.43,7.03,2.3,11.88,2.74,4.52.41,9.37.71,14.83.9,3.48.13,7.06.14,10.52.16l7.41.06c2,.02,4.02.03,6.04.08l1.3.02c2.97,0,5.48-.27,7.68-.83,4.11-1.05,8.15-2.83,12-5.29,2.58-1.66,5.19-3.46,7.7-5.2l4.65-3.19c1.37-.93,2.76-1.82,4.16-2.71l1.79-1.14c2.07-1.32,4.44-2.02,6.86-2.02,2.1,0,4.14.51,6.09,1.52,3.65,1.89,5.94,4.66,7.52,6.86,2.65,3.67,4.54,7.47,6.37,11.15,1.62,3.26,6.56,4.74,9.95,3.04l7.02-3.56c5.52-2.76,12.15-5.92,19.29-8.34,6.21-2.1,11.91-3.29,17.43-3.62l3.5-.2c2.84-.16,5.43-.3,8.01-.52,1.68-.14,3.27-.28,4.78-.42l1.49-.13c4.14-.38,7.72-.74,11.14-1.13,5.05-.57,9.98-1.52,14.66-2.83,4.32-1.2,7.34-2.43,9.78-4,2.02-1.3,2.54-2.31,2.78-3.12.03-.1.05-.18.07-.26-.68-.55-1.6-.91-2.91-1.26-3.61-.97-7.61-1.23-12.51-1.33-2.57-.04-5.53.38-9,1.22-7.26,1.75-14.65,3.65-21.96,5.54l-3.72.96c-8.94,2.32-18.11,4.7-27.67,6.06-4.38.62-7.84.72-11.18.36-4.96-.54-9.07-2.88-11.57-6.61-2.47-3.69-3.07-8.29-1.68-12.95.63-2.11,1.58-4.24,2.89-6.51,2.23-3.86,4.88-7.02,7.41-9.93l4.16-4.77c2.64-3.02,5.08-5.8,7.47-8.61,1.97-2.32,3.28-4.32,4.13-6.3.27-.64.42-1.18.45-1.61-.07-.04-.15-.1-.25-.15-1.52-.86-3.58-1.36-5.57-1.76-1.11-.22-2.14-.23-2.42-.16-1.41.37-2.89,1.27-4.78,2.89-2.69,2.31-5.08,5.16-7.83,8.72-1.01,1.31-1.98,2.63-2.96,3.95-3.02,4.1-5.88,7.98-9.44,11.7-2.06,2.14-3.95,4.42-5.96,6.83-1.17,1.41-2.26,2.72-3.37,4-2.38,2.76-5.08,5.69-8.62,8.26-4.57,3.31-9.27,4.92-14.35,4.92l-.88-.02c-4.05-.16-7.83-1.3-11.95-3.58-3.6-1.99-5.91-5.97-5.89-10.13,0-1.5,0-3.27.42-5.24l.41-1.9c.61-2.86,1.29-6.13,2.27-9.43,1.66-5.66,3.38-11.3,5.12-16.95,1.18-3.86,2.37-7.73,3.53-11.61l.7-2.33c1.1-3.63,2.35-7.75,3.26-11.62,1.13-4.85,2.74-9.26,4.92-13.47.62-1.19,1.25-2.4,1.89-3.59.82-1.54,1.63-3.06,2.41-4.6.99-1.94,1.49-3.39,1.6-4.56.04-.4.02-.62,0-.71-.03,0-.18-.14-.48-.33-1.07-.68-2.43-1.25-4.28-1.8-2.82-.84-6-1.44-10.32-1.96-2.97-.35-5.56-.4-8-.09h-.03Z"/>
    </g>
  </g>
</svg>