<svg width="953" height="160" viewBox="0 0 953 160" fill="none" xmlns="http://www.w3.org/2000/svg">
<g clip-path="url(#clip0_531_1047)">
<path d="M42.1755 0H511.118C507.178 12.335 502.472 24.5027 498.625 36.5951C520.661 36.7919 545.134 31.9138 556.929 55.074C567.751 43.6762 581.937 36.7502 597.857 36.6388C617.827 36.4991 637.835 36.6766 657.816 36.6707L783.445 36.6683L848.246 36.6493C859.557 36.63 871.617 36.2269 882.844 37.066C892.922 37.8193 902.587 44.1928 907.87 52.8879C917.298 51.2674 936.161 50.3581 944.259 56.0595C947.924 58.6102 950.407 62.5321 951.142 66.9372C952.598 75.5809 944.584 95.7423 937.929 101.778C939.222 110.508 937.799 111.734 935.478 119.834C932.152 131.444 926.636 142.647 912.94 144.043C903.675 144.987 892.732 144.7 883.42 142.225C864.584 165.279 841.349 158.656 815.341 159.716C810.881 159.898 806.16 159.74 801.681 159.71C787.738 159.616 774.604 161.192 762.981 151.652C761.735 150.617 760.502 149.561 759.289 148.487C752.861 153.512 747.536 157.544 739.22 158.722C727.895 160.325 715.473 159.715 704.045 159.71L657.699 159.679C655.034 159.678 641.579 159.393 639.887 160H579.858C580.592 155.531 586.383 139.611 588.327 134.972C585.048 130.88 581.732 126.817 578.383 122.783C570.877 133.159 560.059 149.14 553.357 160H327.245C322.805 156.77 296.524 103.259 289.266 93.5526C286.167 103.359 282.59 112.761 279.595 122.647C275.153 122.82 270.146 122.828 265.676 122.707C236.706 121.927 206.643 123.807 177.781 122.522C178.792 117.767 184.307 103.06 186.118 97.946C183.126 94.6865 179.011 89.3921 176.356 85.8033C168.168 97.4307 159.72 111.548 151.325 122.607C148.364 122.799 144.774 122.773 141.793 122.701C119.559 122.166 96.6341 123.501 74.4676 122.54C72.5928 117.301 69.7543 105.932 67.3317 102.077C65.3769 108.912 62.7022 115.844 60.4898 122.702C42.1001 122.867 18.0587 123.332 0 122.533V121.969C0.573142 120.957 3.04867 113.753 3.58853 112.223L12.928 84.9577C22.8481 56.6977 32.5975 28.3778 42.1755 0Z" fill="black"/>
<path d="M447.716 50.1786L497.309 50.1302C508.457 50.1246 523.001 49.1572 533.707 51.2256C543.525 53.1228 547.32 63.373 544.413 72.2544C539.293 87.8837 533.368 103.32 528.6 118.955C531.805 114.889 535.651 108.95 538.646 104.602L556.171 79.1479C559.877 73.7609 564.17 66.8237 568.663 62.3242C573.909 57.0581 580.518 53.3507 587.746 51.6126C596.164 49.5144 611.349 50.1284 620.437 50.1316L663.625 50.1716C653.067 80.9781 641.947 115.794 630.501 146.033L598.67 146.02C600.084 140.926 602.173 135.479 603.982 130.465L606.484 122.799L595.782 122.736C590.583 116.677 585.206 109.543 580.03 103.254L613.26 103.251C614.609 99.5042 622.99 76.5302 622.311 74.5409C618.404 72.3846 588.745 73.3558 581.927 73.2228L590.094 80.9293C585.802 87.9893 580.044 96.0912 575.384 103.02L546.497 145.992L510.271 145.983L513.671 140.919C510.532 142.537 505.816 144.974 502.355 145.36C492.44 146.463 481.413 146.054 471.395 146.051L414.546 146.006C417.61 138.414 420.758 127.554 423.623 119.571C431.836 96.6856 439.223 72.933 447.716 50.1786Z" fill="#FEFEFE"/>
<path d="M456.962 73.2219C475.157 73.9684 493.5 72.3708 511.69 73.4884C510.178 79.1312 507.988 84.7331 506.076 90.2577L495.821 119.938C495.542 120.654 495.049 121.322 494.644 121.974C492.151 123.734 459.95 122.746 454.568 122.735C459.556 109.981 463.574 96.7466 468.171 83.8349C464.522 80.7135 459.653 77.2047 456.962 73.2219Z" fill="black"/>
<path d="M374.228 13.5207L492.491 13.4812C489.677 21.0046 487.138 28.9362 484.324 36.5888L422.925 36.6285C426.78 39.8694 430.676 43.4771 434.437 46.8572C427.398 67.2781 419.541 88.7953 412.962 109.268L380.93 109.241C386.857 90.3976 394.038 71.7279 400.228 52.9455C401.977 47.6386 403.84 41.7879 406.05 36.694C401.802 36.5055 397.055 36.5766 392.767 36.5552L371.691 36.5214C366.277 50.0641 364.972 64.026 351.487 72.3981C344.346 76.8311 338.018 77.4009 329.914 77.7721C340.629 94.7916 350.603 112.491 361.229 129.587C364.503 134.854 367.928 140.47 370.747 145.962C359.31 146.327 345.648 146.004 334.05 146.01C330.922 139.604 326.423 132.306 322.944 125.902C314.217 109.835 304.686 93.8321 296.154 77.6865L280.769 77.6669C276.971 87.5679 273.287 99.1902 269.83 109.282L237.659 109.244L258.98 47.4679C262.478 37.3169 266.948 23.0936 270.951 13.511C297.544 13.4887 324.189 13.4324 350.785 13.4991C361.501 13.526 364.462 14.5894 371.517 21.8947C372.322 19.1078 373.307 16.2788 374.228 13.5207Z" fill="#FE213A"/>
<path d="M281.131 36.7294C285.395 36.2932 297.917 36.514 302.526 36.5477C314.444 36.6349 327.223 36.2617 339.026 36.7286C337.641 42.1505 335.225 48.4912 333.329 53.8512C332.682 55.654 330.424 55.7265 328.79 55.76C324.575 55.847 320.315 55.8107 316.102 55.8056L288.349 55.7577L291.661 46.2288C288.259 43.2536 284.258 39.9016 281.131 36.7294Z" fill="black"/>
<path d="M113 13.5592C125.109 13.1974 138.983 13.506 151.211 13.4461C133.886 24.462 116.423 36.5195 99.125 47.7744C104.449 63.1321 111.821 81.4153 116.39 96.6558C119.494 93.1362 126.102 83.0018 129.043 78.7367L153.431 43.3554C157.368 37.6321 161.904 30.27 166.697 25.48C171.746 20.4385 178.052 16.84 184.961 15.058C193.583 12.8361 209.667 13.4729 218.96 13.4836L261.596 13.4894L240.917 73.3144C236.926 84.8967 232.77 97.9832 228.381 109.257L223.01 109.267L196.402 109.266C198.731 101.759 201.741 93.6683 204.222 86.0269L193.536 86.0074C188.637 79.5121 183.18 73.1083 178.17 66.5697L211.187 66.5669C212.367 62.3335 221.422 39.441 219.833 37.345C213.862 35.9417 187.356 36.6058 179.775 36.643C181.948 38.9016 185.485 41.8427 187.952 44.2533C185.741 48.1888 180.622 55.3256 177.961 59.2693L156.508 91.0553C152.887 96.4232 147.618 103.767 144.484 109.263L84.4617 109.276C83.2125 106.418 82.067 102.75 81.1601 99.7367C77.8384 88.6995 73.6349 77.666 70.6063 66.5637C64.3262 70.2507 63.8407 70.9451 61.5394 77.8893C58.0764 88.339 54.6705 98.9767 50.7949 109.275L18.8923 109.255C20.2301 104.774 21.8807 100.074 23.4589 95.666C33.2136 68.4186 42.0522 40.6948 51.8967 13.4941L84.0752 13.505C82.3126 17.0076 76.8608 34.1216 75.3581 38.6062C87.5894 30.7057 100.751 20.9151 113 13.5592Z" fill="#FE213A"/>
<path d="M812.736 50.3837C814.141 50.1796 816.899 50.1582 818.369 50.1628C838.949 50.4465 860.078 49.5396 880.602 50.3651C893.657 50.8903 900.168 61.2986 895.755 73.3851C889.471 90.5782 884.49 108.291 877.816 125.341C873.537 136.268 863.519 144.257 851.957 145.637C851.836 145.656 851.715 145.674 851.595 145.691C849.088 146.036 845.697 146.058 843.13 146.03C822.996 145.75 802.793 146.707 782.687 145.655C771.972 144.609 763.6 136.607 767.283 125.385C773.274 107.14 779.408 88.7772 785.989 70.7326C790.235 59.087 800.621 51.9447 812.736 50.3837Z" fill="#FEFEFE"/>
<path d="M802.444 73.2107C822.717 73.9851 843.186 72.1991 863.431 73.48C858.957 88.5251 853.362 103.46 848.106 118.259C847.674 119.602 847.246 120.767 846.465 121.958C844 123.638 806.513 122.718 800.356 122.66C803.481 109.437 809.253 96.413 813.401 83.427C809.76 80.2814 805.393 76.9981 802.444 73.2107Z" fill="black"/>
<path d="M692.804 50.3813C696.985 49.7525 715.821 50.1599 721.281 50.166L782.696 50.1558C780.566 57.3279 777.324 65.9172 774.873 73.2427C744.936 72.9939 713.021 73.9818 683.335 73.1995C686.665 76.439 690.26 79.6213 693.716 82.7497C689.418 94.9213 683.586 110.55 680.089 122.717C686.581 122.726 723.519 123.299 726.425 121.909C728.946 119.001 731.211 110.144 732.471 106.041C720.44 106.187 702.599 109.132 709.422 90.5851C709.822 89.1799 710.054 88.0339 711.017 86.9079C712.905 86.4502 725.751 86.6292 728.416 86.6306C742.624 86.5953 756.833 86.6395 771.041 86.7632C770.134 90.5795 767.023 99.5032 765.558 103.439C761.442 114.063 759.251 125.696 752.666 135.162C744.257 147.252 732.155 146.026 719.24 146.045L694.483 146.061L668.852 146.053C662.825 146.049 652.388 147.042 647.314 143.685C643.323 141.044 643.3 136.428 644.709 132.252C651.602 111.798 658.481 91.2627 665.778 70.9451C669.959 59.3185 680.763 51.9418 692.804 50.3813Z" fill="#FEFEFE"/>
<path d="M899.433 102.841C904.363 102.477 918.13 101.747 922.223 103.292C923.162 103.647 923.883 104.392 924.288 105.306C926.069 109.357 922.297 117.617 920.758 121.457C919.163 125.426 917.479 128.55 913.395 130.288C907.949 130.943 894.731 131.627 889.932 129.829C889.262 129.579 888.439 129.066 888.132 128.397C886.225 124.219 890.029 116.403 891.569 112.266C893.262 107.707 894.89 104.922 899.433 102.841Z" fill="#FEFEFE"/>
<path d="M912.447 65.7395C917.47 65.3805 931.552 64.6451 935.52 66.3567C936.31 66.6953 936.929 67.3391 937.24 68.1414C938.905 72.4977 934.71 81.58 932.943 85.5898C931.241 89.4479 929.659 91.4963 925.66 93.0572C920.279 93.4744 907.07 94.4981 902.508 92.2921C901.536 91.8232 900.871 91.3158 900.531 90.2442C899.201 86.073 903.94 75.0395 906.047 71.1977C907.661 68.2549 909.168 66.6953 912.447 65.7395Z" fill="#FEFEFE"/>
<path d="M164.115 136.974C168.579 136.908 173.212 136.334 176.981 139.291C178.488 140.474 179.682 142.194 179.895 144.131C180.103 146.029 179.457 147.817 178.267 149.284C176.049 152.018 173.769 152.521 170.404 152.848L169.205 153.061C168.413 154.884 168.763 157.588 168.805 159.572C166.859 159.713 164.877 159.533 162.931 159.436C162.817 153.172 161.842 143.186 163.102 137.417L164.115 136.974ZM173.649 146.76C173.857 145.469 174.078 144.498 173.351 143.342C172.164 142.447 170.381 142.556 168.951 142.473C168.896 144.104 168.633 145.307 169.408 146.772C170.641 147.397 172.33 146.944 173.649 146.76Z" fill="black"/>
<path d="M63.9315 136.911L68.814 137.145C68.8572 144.193 69.6139 152.286 68.6275 159.239L67.9452 159.696C66.3546 159.703 64.8905 159.643 63.3176 159.352C62.0177 156.962 62.4246 140.425 63.0883 137.35L63.9315 136.911Z" fill="black"/>
<path d="M198.787 136.996C204.134 136.861 209.833 136.178 214.201 139.995C217.452 142.836 216.033 147.46 213.418 150.174C213.042 150.562 212.655 150.939 212.259 151.305C213.118 153.146 215.728 157.271 215.699 158.564C214.586 160.136 212.577 159.732 210.717 159.734C209.923 158.404 206.661 152.414 205.862 152.048C204.031 154.241 205.002 158.606 204.23 160H199.03C198.343 154.164 198.686 143.304 198.787 136.996ZM209.833 146.718C209.924 145.199 210.091 144.471 209.359 143.088C208.02 142.256 206.318 142.401 204.794 142.382C204.743 143.691 204.401 145.647 205.27 146.713C206.388 147.502 208.289 146.986 209.567 146.77C209.656 146.755 209.744 146.738 209.833 146.718Z" fill="black"/>
<path d="M101.339 160C97.2816 157.654 94.5594 155.874 93.2507 151.131C91.6098 145.185 95.4077 138.332 101.463 136.885C106.857 135.596 110.458 137.794 114.164 141.344C112.891 142.304 111.073 143.903 109.581 144.16C106.652 143.005 100.814 140.641 99.1861 144.926C98.561 146.57 98.5894 149.512 99.3614 151.116C100.099 152.627 101.415 153.777 103.012 154.305C105.05 154.982 108.4 154.5 109.288 152.311C106.338 151.486 103.947 150.827 104.755 147.077C106.7 146.154 113.39 146.549 115.901 146.61C115.717 154.441 114.928 155.594 108.62 160H101.339Z" fill="black"/>
<path d="M0 136.985C5.24066 136.859 10.9344 136.161 15.1912 139.935C18.7221 143.065 16.7874 148.057 13.9567 150.901C13.8101 151.049 13.6613 151.193 13.5102 151.336C14.6011 153.592 17.1438 157.796 16.8524 160H16.1599C15.3993 159.574 12.1559 159.708 11.8522 159.442C10.215 158.008 8.59701 152.131 6.30603 152.095C5.44897 153.521 5.5331 158.145 5.4626 160H0V136.985ZM10.9901 146.725C10.9919 145.45 11.1577 143.989 10.2952 142.951C8.96875 142.099 7.21775 142.293 5.69905 142.298C5.67161 143.979 5.42525 145.272 6.22116 146.78C7.32523 147.538 9.31771 147.035 10.5783 146.815C10.7166 146.791 10.854 146.76 10.9901 146.725Z" fill="black"/>
<path d="M72.1192 159.486C72.1057 156.337 71.6509 138.107 72.7104 136.672C77.1045 135.197 82.8916 146.973 84.4706 147.235C84.7901 143.691 83.6013 139.177 85.6338 137.313C86.9286 136.761 87.1871 136.758 88.5643 137.058C89.847 138.196 90.5586 139.722 90.3856 141.326C90.0135 144.774 90.433 157.609 89.8349 160H89.3782C88.7824 159.935 88.1894 159.849 87.6001 159.74C84.5282 159.16 79.9774 151.187 77.8914 148.152C77.8003 150.65 77.8966 158.119 77.2515 160H76.7078C74.9126 159.546 73.934 159.547 72.1192 159.486Z" fill="black"/>
<path d="M245.07 159.694C245.003 155.186 244.053 140.223 246.213 137.314C249.938 135.187 254.651 144.926 257.091 147.876L257.133 137.041C258.933 137.04 260.936 136.995 262.717 137.048C262.756 140.587 263.198 157.499 262.315 160H261.98C259.86 159.736 259.074 159.779 257.628 158.151C255.028 155.222 253.045 151.827 250.761 148.661L250.644 159.814C249.112 159.767 246.524 159.619 245.07 159.694Z" fill="black"/>
<path d="M25.1821 137C27.4322 137.003 30.2984 136.931 32.4849 137.141C34.915 144.557 37.4811 152.122 39.7911 159.56C37.9886 159.678 35.6787 160.085 34.2327 159.13C33.3839 158.012 33.2279 157.581 32.7101 156.272C30.3396 156.239 27.3611 155.823 25.4803 156.996C24.6364 158.072 24.4431 158.719 23.9609 160H23.1139C20.9395 159.689 19.4309 160.049 18.4839 158.88C19.6315 153.282 23.3535 142.877 25.1821 137ZM29.3231 151.91C29.6425 151.652 30.4501 151.151 30.4913 150.773C30.6837 149.005 30.0376 146.41 28.9419 144.987C28.1948 146.686 26.8704 148.856 27.2809 150.746C27.8011 151.51 28.4869 151.658 29.3231 151.91Z" fill="black"/>
<path d="M181.862 136.995C186.509 136.977 191.333 136.895 195.963 137.004C195.954 139.447 196.328 139.903 195.238 141.815C192.066 144.064 186.852 139.893 187.558 145.044C189.644 146.652 193.459 143.738 195.256 146.744C195.277 148.619 195.627 149.37 194.686 150.685C192.14 151.245 189.687 150.881 187.372 151.633L187.253 152.871C190.645 154.608 192.422 154.279 196.204 154.266C196.185 155.754 196.255 158.729 195.847 160H182.053C181.534 154.073 181.841 143.227 181.862 136.995Z" fill="black"/>
<path d="M288.78 137.027C293.458 136.931 298.138 136.928 302.816 137.02L302.772 142.331C300.248 142.261 296.631 141.737 294.868 143.786C295.647 146.067 299.973 145.552 302.084 145.542C302.095 147.116 302.184 149.449 301.998 150.953C299.929 150.921 296.155 150.483 294.864 152.287C296.139 154.778 300.561 154.251 303.071 154.256C303.052 156.01 303.242 158.558 302.397 160H301.937C299.459 159.484 291.912 159.745 288.874 159.719C288.761 152.155 288.729 144.592 288.78 137.027Z" fill="black"/>
<path d="M141.17 137.079C143.421 137.025 145.831 136.894 148.046 137.202L151.288 142.329C152.732 139.709 155.498 134.375 159.483 137.62C159.9 140.426 156.153 144.74 154.439 148.334C156.077 150.997 160.321 157.343 160.774 160H155.409C153.998 158.443 152.3 155.697 151.27 153.869L147.243 160H141.473C142.044 157.114 146.199 151.237 147.755 148.183C145.424 143.685 144.112 141.266 141.17 137.079Z" fill="black"/>
<path d="M227.811 137C232.41 136.981 237.314 136.88 241.885 137.018L241.827 142.348C239.256 142.262 235.656 141.771 233.768 143.522C233.716 143.57 233.665 143.62 233.615 143.671L233.715 144.381C236.148 146.019 238.314 145.594 241.297 145.53L241.25 150.924C238.97 150.861 236.12 150.546 234.172 151.605L233.522 152.357C235.291 154.855 239.16 154.255 241.986 154.241C241.959 155.983 241.982 158.311 241.848 160H240.567C238.58 159.358 230.727 159.809 227.84 159.511C227.748 152.008 227.739 144.503 227.811 137Z" fill="black"/>
<path d="M125.895 137.001C130.492 136.98 135.44 136.87 140.007 137.015L139.952 142.332C137.244 142.26 133.31 141.71 131.391 143.873C132.68 146.063 136.79 145.53 139.111 145.522L139.136 150.936C136.777 150.888 134.048 150.605 132.011 151.717L131.4 152.407C133.379 154.798 137.132 154.257 140.049 154.261C140.051 155.926 140.209 158.519 139.642 160H139.175C135.837 159.306 129.672 159.876 125.918 159.537C125.721 152.722 125.582 143.844 125.895 137.001Z" fill="black"/>
<path d="M48.0073 160C44.1976 157.733 41.2865 155.802 40.1255 151.193C39.3317 148.044 39.8183 144.708 41.4789 141.916C42.9948 139.39 45.4526 137.571 48.311 136.858C53.5358 135.595 57.3337 137.828 60.9293 141.325C59.4605 142.694 57.8606 144.477 55.8877 144.485C54.5655 143.093 54.0548 142.287 52.1833 142.229C50.3016 142.166 48.4714 142.854 47.0976 144.141C42.5419 148.423 47.4948 154.915 51.1108 154.414C56.5049 153.666 55.1771 150.12 61.1525 155.099C58.6676 157.383 57.5634 158.237 54.6692 160H48.0073Z" fill="black"/>
<path d="M273.644 160C270.865 158.234 268.746 157.124 267.149 154.115C265.062 150.179 265.081 145.348 267.544 141.554C269.114 139.095 271.605 137.371 274.46 136.769C279.501 135.708 283.408 137.967 286.842 141.445C278.959 147.939 278.807 139.008 273.692 143.259C272.304 144.397 271.444 146.056 271.315 147.847C271.079 151.005 273.348 154.359 276.567 154.193C282.537 153.886 279.88 151.314 286.249 154.109L286.528 154.756C285.665 156.837 282.575 158.717 280.629 160H273.644Z" fill="black"/>
<path d="M218.586 137.016C220.328 137.034 222.528 136.996 224.228 137.094C224.271 141.216 224.658 156.714 223.798 160H218.915C218.204 155.398 218.542 142.39 218.586 137.016Z" fill="black"/>
</g>
<defs>
<clipPath id="clip0_531_1047">
<rect width="952.5" height="160" fill="white"/>
</clipPath>
</defs>
</svg>
