<?xml version="1.0" encoding="UTF-8"?>
<svg id="Layer_1" xmlns="http://www.w3.org/2000/svg" version="1.1" viewBox="0 0 256 257.47">
  <!-- Generator: Adobe Illustrator 29.8.5, SVG Export Plug-In . SVG Version: 2.1.1 Build 2)  -->
  <defs>
    <style>
      .st0 {
        fill: #fff;
      }

      .st0, .st1, .st2, .st3 {
        fill-rule: evenodd;
      }

      .st1 {
        fill: #0a0a0a;
      }

      .st3 {
        fill: #ff5f1f;
      }
    </style>
  </defs>
  <g id="Logo_x2F_EST1_x5F_Karting_x2F_track_x5F_logo_x2B_shape_x5F_aravete-vertical_x5F_positive-Copy-7">
    <g id="EST1_Karting">
      <path id="EST" class="st2" d="M104.96,176.18l2.85-5.61h-60.66c-2.86,0-5.48,1.6-6.78,4.16l-2.71,5.34c-1.59,3.13.06,6.94,3.44,7.91l19.25,5.5-1.67,2.61H11.6v-4.33h13.99l4.05-7.97H11.6v-4.55h20.36l4.41-8.66H3.8c-2.1,0-3.8,1.7-3.8,3.81v26.56c0,2.1,1.7,3.81,3.8,3.81h58.27c2.86,0,5.48-1.61,6.78-4.16l2.75-5.4c1.59-3.12-.05-6.92-3.41-7.9l-19.28-5.62,1.53-2.43h28.45v25.52h12.2v-25.52h8.89c2.1,0,4.02-1.18,4.97-3.05h0v-.02ZM252.2,170.57h-92.64c-2.1,0-4.02,1.18-4.97,3.05l-15.84,31.13h113.45c2.1,0,3.8-1.71,3.8-3.81v-26.56c0-2.1-1.7-3.81-3.8-3.81h0Z"/>
      <path id="Karting" class="st0" d="M240.71,180.54c.81,0,1.54.05,2.19.14.65.09,1.27.23,1.86.43v2.42c-.58-.21-1.2-.36-1.85-.45-.65-.09-1.31-.14-2-.14-1.6,0-2.74.39-3.41,1.18s-1,1.98-1,3.58c0,2.88,1.36,4.32,4.07,4.32.47,0,.94-.04,1.39-.11.45-.08.85-.18,1.2-.3v-3.13h-3.13v-1.8h5.52v6.58c-.46.29-1.1.56-1.92.79-.82.24-1.85.36-3.09.36-2.26,0-3.97-.59-5.14-1.78-1.17-1.18-1.75-2.83-1.75-4.93,0-2.23.59-3.98,1.78-5.25,1.18-1.27,2.95-1.91,5.29-1.91h0ZM161.88,180.75v5.7l5.18-5.7h3.24l-4.87,5.45,5.12,8h-3.01l-3.87-6.2-1.8,1.94v4.26h-2.82v-13.45h2.83ZM180,180.75l5.12,13.45h-2.92l-1.27-3.24h-4.95l-1.25,3.24h-2.95l5.14-13.45h3.09,0ZM194.15,180.75c1.55,0,2.68.41,3.41,1.22s1.09,1.91,1.09,3.29c0,.91-.23,1.69-.7,2.34s-1.12,1.13-1.97,1.42c.22.18.4.38.53.58.13.21.27.49.41.84l1.63,3.76h-2.92l-1.59-3.61c-.14-.31-.29-.52-.46-.65-.17-.13-.45-.19-.84-.19h-2.21v4.45h-2.82v-13.45h6.46-.02ZM211.46,180.75v2.17h-4.12v11.28h-2.82v-11.28h-4.14v-2.17h11.08ZM216.44,180.75v13.45h-2.82v-13.45h2.82ZM221.88,180.75l6.37,8.96v-8.96h2.82v13.45h-2.44l-6.37-8.96v8.96h-2.82v-13.45h2.44ZM178.43,183.38l-2.05,5.41h4.12l-2.07-5.41h0ZM193.59,183.09h-3.07v4.32h2.9c.74,0,1.32-.16,1.73-.49.42-.33.63-.88.63-1.66s-.18-1.3-.54-1.65c-.36-.35-.91-.52-1.65-.52Z"/>
      <path id="_x31_" class="st3" d="M131,163.31s-5.53,4.09-16.32,7.25l-4.41,8.66h14.87l-6.58,1.98c-1.46.44-2.67,1.46-3.37,2.81l-13.42,26.37h26.23l23.95-47.08h-20.95Z"/>
    </g>
    <g id="Track">
      <g id="Track-Background">
        <polygon id="Fill-11" class="st1" points="227.41 234.69 221.6 246.08 232.99 246.08 238.8 234.69 227.41 234.69"/>
        <polygon id="Fill-13" class="st1" points="25.66 223.29 25.66 223.29 23 223.29 17.2 234.69 19.85 234.69 28.59 234.69 34.4 223.29 25.66 223.29"/>
        <polygon id="Fill-15" class="st1" points="5.81 234.69 0 246.08 11.39 246.08 17.2 234.69 5.81 234.69"/>
        <polygon id="Fill-18" class="st1" points="5.59 257.47 16.98 257.47 22.79 246.08 11.39 246.08 5.59 257.47"/>
        <polygon id="Fill-20" class="st1" points="216.01 234.69 227.4 234.69 233.21 223.29 45.79 223.29 39.99 234.69 28.59 234.69 22.79 246.08 34.18 246.08 28.38 257.47 215.79 257.47 221.6 246.08 210.21 246.08 216.01 234.69"/>
        <polygon id="Fill-22" class="st1" points="256 223.29 244.6 223.29 238.8 234.69 250.19 234.69 256 223.29"/>
        <polygon id="Fill-24" class="st1" points="244.39 246.08 232.99 246.08 227.19 257.47 238.58 257.47 244.39 246.08"/>
      </g>
      <g id="Rapla">
        <path id="Fill-26" class="st0" d="M88.51,240.13h2.48c1.43,0,2.3-.69,2.6-2.08.03-.15.06-.29.08-.43.02-.13.03-.26.03-.38,0-.43-.13-.76-.38-.99-.25-.23-.68-.34-1.27-.34h-2.63l-.9,4.2v.02ZM82.05,248.44l3.4-16.11h8.38c1.53,0,2.7.39,3.5,1.16.8.78,1.2,1.81,1.2,3.09,0,.45-.05.94-.15,1.48-.23,1.08-.71,2.04-1.43,2.86-.72.83-1.58,1.45-2.58,1.89.17.15.29.33.38.54.08.21.17.5.25.86l.98,4.23h-4.9l-.9-3.88c-.07-.3-.18-.51-.35-.64s-.43-.19-.78-.19h-1.33l-.98,4.7h-4.7.01Z"/>
        <path id="Fill-28" class="st0" d="M106.59,241.63h3.6l-.8-4.73s-2.8,4.73-2.8,4.73ZM98.31,248.44l9.58-16.11h4.98l2.78,16.11h-4.9l-.58-3.43h-4.9l-2.05,3.43h-4.91Z"/>
        <path id="Fill-30" class="st0" d="M124.3,240.51h2.43c.85,0,1.47-.21,1.86-.63s.65-.96.79-1.63c.03-.17.06-.33.08-.48s.03-.29.03-.42c0-.45-.12-.8-.36-1.05s-.67-.38-1.29-.38h-2.55l-.98,4.58h0ZM117.92,248.44l3.4-16.11h7.95c1.63,0,2.89.43,3.75,1.29.87.86,1.3,1.95,1.3,3.26,0,.43-.05.89-.15,1.38-.23,1.13-.64,2.14-1.21,3.03s-1.33,1.57-2.25,2.07c-.93.5-2.06.75-3.39.75h-3.8l-.9,4.33h-4.7Z"/>
        <polygon id="Fill-32" class="st0" points="134.53 248.44 137.93 232.33 142.63 232.33 139.98 244.83 147.23 244.83 146.48 248.44 134.53 248.44"/>
        <path id="Fill-34" class="st0" d="M156.76,241.63h3.6l-.8-4.73-2.8,4.73ZM148.48,248.44l9.58-16.11h4.98l2.78,16.11h-4.9l-.58-3.43h-4.9l-2.05,3.43h-4.91Z"/>
      </g>
    </g>
    <g id="Shape">
      <path id="Track-shape" class="st3" d="M47.22,1.12c4.95,1.37,9.13,4.31,12.43,8.74l3.42,4.58c6.32,8.47,12.64,16.95,18.97,25.41,5.83,7.77,10.93,13.76,16.07,18.84,4.84,4.79,9.88,7.81,15.41,9.25,8.52,2.22,16.66,1.14,24.06-3.18,2.49-1.45,5.1-3.06,7.72-4.77,3.45-2.25,7.22-3.4,11.52-3.52h.59c2.97,0,5.91.51,8.75,1.02,8.11,1.43,16.03,2.86,23.95,4.32,7.9,1.45,15.8,2.94,23.7,4.42l4.75.89c4.99.94,9.99,1.87,14.98,2.87l1.84.36c3.05.6,5.92,1.16,8.7,2.09,6.42,2.14,10.33,6.72,11.61,13.62,1.06,5.76-.43,11.06-4.55,16.23-3.24,4.09-7.29,7.68-12,10.67-8.54,5.43-17.15,10.75-25.18,15.7-7.43,4.58-15.25,9.34-23.23,14.13-3.4,2.04-7.08,4.15-11.05,5.72-4.93,1.96-9.59,2.95-14.26,3.03h-.87c-6.07,0-11.17-1.17-15.6-3.59-6.18-3.37-10.01-8.69-11.38-15.82-.76-3.98.3-7.78,3.21-11.63,2.09-2.76,4.97-4.86,9.09-6.61,3.5-1.49,7.4-2.68,12.62-3.85l23.46-5.22c.53-.12,1.08-.29,1.59-.51.54-.24,1.01-.54,1.4-.9,1.19-1.12,1.7-2.91,1.36-4.83-.32-1.75-1.33-3.14-2.71-3.72-1.56-.65-3.22-1.04-4.78-1.36-4.86-1.01-9.62-1.16-13.23-1.18l-1.14-.12-4.24.21c-2.96.19-5.95.38-8.93.51-3.71.17-7.26,1.2-10.53,3.05-2.2,1.24-4.27,2.75-6.14,4.48l-.88.81c-3.55,3.27-7.21,6.65-10.76,10.09-1.23,1.19-2.33,2.4-3.41,3.58-1.12,1.22-2.02,2.21-2.96,3.15-5.88,5.91-12.74,9.37-20.98,10.59-3.1.46-6.3.62-9.02.71-2.8.1-5.61.05-8.41.02l-1.92-.03c-1.07,0-2.17-.04-3.26-.08-1.83-.06-3.35-.1-4.88-.1h-1.32c-5.95.13-11.9,1.33-17.67,3.57-4.89,1.89-9.97,3.1-15.09,3.57-2.85.27-6.96.38-9.8-.33-4.7-1.17-8.36-3.85-11.16-8.2-1.88-2.91-2.94-5.46-3.34-8.02-.7-4.4.2-8.48,2.75-12.44,1.89-2.96,4.59-5.37,8.74-7.81,4.83-2.84,10.05-4.43,15.97-4.86,4.69-.35,8.59-.1,12.2.75,1.72.41,3.5.98,5.39,1.58l2.83.89c2.34.71,4.98,1.51,7.73,1.9,6.44.91,11.68-3.44,11.83-10.01.05-2.39-.76-4.44-1.65-6.3-2.98-6.27-7.75-10.38-14.56-12.56-2.38-.76-4.89-.6-7.8.52-7.04,2.7-14.6,5.69-22.13,9.22-2.85,1.33-5.88,2.02-9.28,2.1h-.76c-4.44.01-8.52-.81-12.58-2.51-5.06-2.12-8.65-5.98-10.97-11.78-1.84-4.58-1.89-9.24-.16-13.87,4.95-13.19,10.36-27.32,16.34-41.25,1.81-4.22,4.22-7.36,7.36-9.6,2.74-1.95,5.86-3.1,9.55-3.51,4.55-.51,8.78-.22,12.71.87h-.03ZM35.75,11.21c-1.79.2-3.17.69-4.36,1.53-1.48,1.05-2.59,2.58-3.61,4.95-5.9,13.73-11.24,27.71-16.14,40.77-.77,2.05-.75,3.88.07,5.92,1.53,3.82,3.37,5.02,4.97,5.7,2.67,1.12,5.36,1.66,8.21,1.66h.62c1.78-.06,3.36-.4,4.8-1.07,7.85-3.67,15.63-6.75,22.86-9.53,5.29-2.03,10.37-2.26,15.16-.73,9.76,3.12,16.89,9.29,21.19,18.34,1.31,2.77,2.81,6.54,2.71,11.26-.25,11.94-9.33,20.94-21.12,20.94-1.1,0-2.23-.08-3.34-.24-3.58-.51-6.8-1.49-9.37-2.27-.97-.3-1.95-.61-2.93-.92-1.68-.54-3.18-1.03-4.63-1.38-2.49-.59-5.33-.75-8.83-.48-4.18.3-7.83,1.4-11.15,3.36-2.57,1.51-4.13,2.83-5.04,4.25-1.08,1.69-1.41,3.07-1.14,4.79.16.99.72,2.22,1.71,3.76,1.28,1.98,2.59,2.98,4.55,3.47,1.47.37,4.26.22,6.07.05,4.1-.38,8.17-1.34,12.11-2.87,6.99-2.71,14.22-4.16,21.48-4.3h1.52c1.64-.01,3.28.04,4.91.09,1.33.04,2.34.07,3.35.08l1.94.03c2.63.04,5.25.08,7.88-.01,2.42-.08,5.23-.22,7.77-.59,5.87-.87,10.56-3.24,14.75-7.45.83-.84,1.63-1.72,2.44-2.59,1.44-1.57,2.69-2.94,4.09-4.29,3.62-3.5,7.35-6.94,10.96-10.27l.88-.81c2.51-2.31,5.26-4.32,8.2-5.98,4.8-2.72,10.01-4.23,15.48-4.48,2.92-.13,5.83-.31,8.74-.5l4.66-.26c.65,0,1.31.05,1.96.16,4.06.03,9.34.24,14.93,1.4,2,.41,4.38.98,6.81,1.99,4.85,2.03,8.34,6.49,9.32,11.94,1.01,5.62-.74,11.17-4.69,14.84-1.31,1.23-2.85,2.23-4.56,2.97-1.16.5-2.37.89-3.6,1.16l-23.41,5.21c-4.55,1.03-7.85,2.03-10.72,3.24-2.26.96-3.72,1.95-4.59,3.1-1.38,1.82-1.24,2.6-1.17,2.93.74,3.89,2.54,6.42,5.81,8.2,2.75,1.5,6.1,2.23,10.26,2.24h.74c3.26-.06,6.65-.8,10.31-2.25,3.22-1.28,6.43-3.12,9.43-4.92,7.94-4.77,15.73-9.51,23.13-14.07,7.98-4.92,16.55-10.21,25.04-15.61,3.68-2.33,6.8-5.1,9.28-8.22,2.64-3.31,2.66-5.59,2.33-7.37-.62-3.33-2.02-4.41-4.23-5.15-2.11-.7-4.63-1.2-7.31-1.73l-1.89-.38c-4.95-.99-9.9-1.92-14.85-2.84l-4.75-.89c-7.88-1.48-15.77-2.96-23.66-4.41s-15.79-2.88-23.88-4.3c-2.48-.44-4.82-.86-6.73-.86-2.58.07-4.42.62-6.12,1.73-2.78,1.81-5.54,3.51-8.18,5.06-9.93,5.8-21.1,7.3-32.45,4.34-7.48-1.94-14.16-5.9-20.42-12.1-5.53-5.47-10.98-11.85-17.14-20.07-6.34-8.47-12.67-16.95-18.99-25.43l-3.42-4.59c-1.84-2.48-3.91-3.97-6.5-4.68-2.58-.72-5.45-.89-8.51-.54v-.03Z"/>
    </g>
  </g>
</svg>