<?xml version="1.0" encoding="UTF-8"?>
<svg id="Layer_1" xmlns="http://www.w3.org/2000/svg" version="1.1" viewBox="0 0 997 375">
  <!-- Generator: Adobe Illustrator 29.8.5, SVG Export Plug-In . SVG Version: 2.1.1 Build 2)  -->
  <defs>
    <style>
      .st0 {
        fill: #2c913c;
      }

      .st1 {
        fill: #38b54b;
      }

      .st2 {
        fill: #0a0a0a;
      }

      .st3 {
        fill: #226d2d;
      }
    </style>
  </defs>
  <path class="st2" d="M148.48,235.2l8.75,40.48,21.15,98.13h-27.51c-1.87-8.49-3.69-16.99-5.45-25.5h-33.03s-5.24,25.52-5.24,25.52l-44.04-.02-37.71-74.73-.03,74.72H0s0-138.61,0-138.61h25.36s.01,63.78.01,63.78l33.33-63.79,26.33.03c-9.95,20.17-23.55,43.79-34.41,63.9l32.09,59.65c8.86-40.98,18.24-82.54,26.54-123.58h39.21ZM128.63,268.47c-4.11,19.34-8.84,39.8-12.53,59.12l13.92-.04,11.78-.05c-1.32-6.3-11.71-57.77-13.16-59.03Z"/>
  <path class="st2" d="M358.94,235.2l17.9,17.87v102.87s-8.37,8.36-8.37,8.36l-9.54,9.51h-69.35s0-138.61,0-138.61h69.36ZM314.78,349.72h36.78s-.02-90.45-.02-90.45l-36.66-.02-.1,90.47Z"/>
  <path class="st2" d="M254.5,235.2l17.91,17.9v52.14s-17.52,17.53-17.52,17.53l27.2,51.01c-8.18-.04-17.96.81-26.11-.25-1.84-.24-2.21-1.59-3.14-3.16l-23.92-47.21-16.26.02c-.28,16.62-.06,33.93-.08,50.61h-25.21s-.03-138.6-.03-138.6h67.14ZM212.6,299.06h34.23c.84-10.92.26-28.48.23-39.81h-34.37s-.09,39.81-.09,39.81Z"/>
  <path class="st2" d="M870.37,235.19l25.28.02v120.73s-17.93,17.87-17.93,17.87h-51.49s-17.85-17.9-17.85-17.9l-.04-120.71,25.26.02.02,114.51h36.77s-.03-114.53-.03-114.53Z"/>
  <path class="st2" d="M630.08,235.2h50.49s18.4,18.56,18.4,18.56v17.54h-25.25s0-12.04,0-12.04l-36.83-.02-.02,33.68,43.7.04,18.42,18.39v44.72s-17.73,17.73-17.73,17.73h-51.85s-17.85-17.88-17.85-17.88v-18.22s25.3.03,25.3.03v11.99s36.86,0,36.86,0l-.02-33.85-43.56-.02-18.59-18.61v-43.46l18.53-18.56Z"/>
  <path class="st2" d="M927.59,235.2h50.29s18.45,18.6,18.45,18.6v17.5h-25.35s0-12.05,0-12.05h-36.74s0,33.7,0,33.7h43.74c6.13,5.94,12.3,12.27,18.35,18.32v44.79s-17.72,17.76-17.72,17.76h-51.82s-17.88-18.02-17.88-18.02l-.04-18.07c8.28-.16,17.02-.01,25.34,0v12.01s36.76,0,36.76,0v-33.86l-43.52-.02-18.54-18.63-.04-43.27c5.7-6.1,12.74-12.79,18.71-18.75Z"/>
  <path class="st2" d="M429,235.19h25.36s.01,63.73.01,63.73c11.2-20.03,22.62-43.2,33.34-63.74l26.31.03c-9.35,19.42-23.88,44.45-34.38,63.91l31.54,58.88c2.93,5.36,5.6,10.26,8.25,15.79l-27.37.02-37.66-74.64c-.43,24.45-.04,50.08-.05,74.63h-25.35s0-138.61,0-138.61Z"/>
  <path class="st2" d="M772.45,235.19l26.32.03c-10.63,20.96-23.15,43.09-34.39,63.88l32.06,59.74,8.01,14.95-27.62.02-37.7-74.8-.04,74.79h-25.32s0-138.6,0-138.6h25.33s.02,63.84.02,63.84l33.33-63.85Z"/>
  <path class="st2" d="M526.44,235.2h73.51s0,24.04,0,24.04h-48.23s-.07,32.96-.07,32.96l43.82.04v22.87h-43.75s-.07,13.99-.07,13.99v20.62h48.3s0,24.08,0,24.08h-73.5v-138.6Z"/>
  <path class="st2" d="M389.15,234.62h26.02s0,139.04,0,139.04h-26s-.02-139.04-.02-139.04Z"/>
  <path class="st2" d="M489.88.4c15.96-.5,37.55-.55,53.54.39,3.49.21,9.46,3.21,12.3,5.54,5.15,4.28,8.4,10.42,9.05,17.09.85,8.59-2.7,14.58-7.81,20.83,12.11,11.46,14.35,24.48,6.1,39.04-3.9,5.2-10.87,11.15-17.51,11.9-18.03,2.05-37.46,1.03-55.74.91-.43-30.98-.28-64.77.08-95.7ZM541.06,70.46c13.1-19.23-15.59-17.29-26.04-17.15v20.04c7.86.15,20,1.52,26.04-2.89ZM539.58,30.94c6.74-15.41-15.75-11.53-24.55-11.57l-.02,13.73c7.07.13,19.18,1.35,24.57-2.16Z"/>
  <path class="st2" d="M402.86.38c8.15-.25,17.11-.06,25.33-.03.51,19.34-.17,40.07.1,59.55.1,7.43.47,29.07-.36,35.24-1.89,1.46-2.43.96-5.35,1.08l-21.78-.05-24.61-56.03c-.62,17.59-.13,38.12-.2,56-8.26.2-17.13.02-25.44,0-.16-4.63-.15-9.45-.1-14.08.3-27.16-.57-54.57.17-81.69,9.98-.22,20.6-.04,30.64-.06l21.52,49.66.08-49.58Z"/>
  <path class="st2" d="M306.39.29l26.13.03.02,25.85c.14,20.84,3.98,45.71-11.03,60.87-7.16,7.18-16.88,11.22-27.01,11.23-10.12-.03-19.81-4.08-26.95-11.26-4.58-4.61-7.87-10.35-9.52-16.64-2.59-9.83-1.53-56.8-1.49-70.02,8.14-.29,17.87-.03,26.13-.03.04,13.33,0,26.66-.1,39.99-.02,7.03-.4,14.53.5,21.48,1.8,13.92,21.28,13.64,22.94-.19.9-7.46.47-15.1.44-22.61l-.06-38.69Z"/>
  <path class="st2" d="M581.66.4c20.42-.86,46.92-.07,67.8,0,.3,7.19.1,14.4-.01,21.6-12.73.51-29.24.09-42.24.08v13.93c8.23,0,16.46.04,24.7.12.23,7.32.1,14.32-.02,21.63l-24.7.04v16.6s44.79.12,44.79.12c.23,6.93.04,14.64.02,21.63l-70.39-.02c-.51-11.02-.15-24.41-.15-35.58l.19-60.14Z"/>
  <path class="st2" d="M664.07.41c23.09-.91,52.19-.04,75.69.03.12,6.97-.01,14.43-.03,21.44-6.85.43-17.52.1-24.65.09l-.06,49.85c.06,8.1,0,16.21-.18,24.31-8.62.17-17.76,0-26.43-.02-.48-24.13-.01-49.88,0-74.14-8.13-.03-16.25-.11-24.38-.23-.39-6.85-.2-14.48.02-21.33Z"/>
  <path class="st2" d="M446.33.35c8.22-.21,17.15,0,25.43.03.8,27.75.59,67.95-.08,95.73l-25.41-.02c-.88-27.34-.57-68.42.06-95.74Z"/>
  <path class="st1" d="M620.76,122.65c8.74-1.92,17.84,1.01,23.81,7.68,5.97,6.67,7.89,16.04,5.01,24.52-2.87,8.48-10.09,14.75-18.88,16.42-13.33,2.52-26.21-6.12-28.92-19.41-2.72-13.29,5.73-26.3,18.98-29.21Z"/>
  <path class="st0" d="M518.44,122.66c8.72-1.93,17.81.99,23.79,7.64,5.97,6.65,7.91,15.99,5.07,24.47-2.83,8.47-10.01,14.77-18.78,16.47-13.33,2.6-26.27-6.01-29.03-19.31-2.76-13.3,5.69-26.35,18.95-29.27Z"/>
  <path class="st1" d="M569.58,122.67c13.3-2.94,26.48,5.39,29.54,18.67,3.05,13.28-5.17,26.53-18.43,29.69-13.41,3.19-26.84-5.15-29.92-18.58-3.09-13.43,5.36-26.8,18.81-29.78Z"/>
  <path class="st0" d="M467.25,122.65c13.39-2.92,26.6,5.57,29.52,18.96,2.91,13.39-5.59,26.6-18.97,29.51-13.38,2.91-26.59-5.58-29.5-18.97-2.91-13.38,5.57-26.59,18.95-29.51Z"/>
  <path class="st3" d="M365.02,122.66c13.37-2.92,26.58,5.56,29.51,18.93,2.93,13.37-5.53,26.59-18.9,29.53-13.39,2.94-26.62-5.53-29.55-18.92s5.55-26.62,18.95-29.54Z"/>
  <path class="st3" d="M416.14,122.67c13.3-2.92,26.47,5.43,29.49,18.71,3.03,13.28-5.22,26.52-18.48,29.65-13.4,3.16-26.81-5.2-29.87-18.63-3.06-13.43,5.41-26.78,18.86-29.73Z"/>
</svg>