<?xml version="1.0" encoding="UTF-8"?>
<svg id="Layer_1" data-name="Layer 1" xmlns="http://www.w3.org/2000/svg" viewBox="0 0 479.08 461.79">
  <defs>
    <style>
      .cls-1 {
        fill: none;
        stroke: #fff;
        stroke-miterlimit: 10;
        stroke-width: 4px;
      }

      .cls-2 {
        fill: #fff;
      }
    </style>
  </defs>
  <path class="cls-1" d="M227.09,3.74c125.45-6.88,232.72,89.24,239.6,214.69,6.88,125.45-89.22,232.72-214.67,239.62-125.46,6.9-232.75-89.22-239.64-214.68C5.5,117.9,101.63,10.62,227.09,3.74"/>
  <path class="cls-2" d="M454.75,211.7l.49.13c.82.56,1,.74,1.14,1.92.56,4.48.36,9.38.47,13.91-1.46.19-2.33.24-3.72.8-3.91,2.43-11.66-.66-15.37-2.4-1.6,4.37-3.56,8.61-5.87,12.65-5.12-2.24-10.07-1.42-15.26.08,2.24-5.25,3.91-11.75,5.18-17.3,6.17.39,10.09,1.82,15.42,4.71,1.56-4.53,1.9-9.53,1.99-14.28,3.29,1.48,13.48,3.42,15.53-.24"/>
  <path class="cls-2" d="M24.63,209.72c.11.9.13,1.61.5,2.45,3.91,3.07,11.15,1.3,15.32-.52-.59,4.83.26,9.04.56,13.78.03.47-.39,1.01-.77,1.25-4.95,2.45-9.81,2.73-14.84,2.27l-.13-.6c-1.02-.35-2.06-.63-3.09-.93-.39-4.62-.14-11.24,1.71-15.61.37-.86.41-.84.68-1.85l.06-.23Z"/>
  <path class="cls-2" d="M140.24,279.42c.15.84.37,1.49.52,2.24.84.32,1.32.38,1.83,1.11,1.22,4.32-1.78,2.86-3.58,3.96-.52.82-1.1,1.93-1.88,2.45l-.35-.13c-.49-1.26-.4-3.55-.26-4.89-.14-1.32.03-1.47-1.17-2.04.07-.02,4.73-2.54,4.89-2.71"/>
  <path class="cls-2" d="M278.08,272.76l.51.83c-1.07,1.02-1.77,1.61-2.54,2.92v-1.58c.25-.43,1.6-1.73,2.03-2.16"/>
  <path class="cls-2" d="M295.81,211.92l.22-.14.56,1.22-.12.18c-2.25,4.55-2.53,8.26-8.05,8.77-3.97,1.58-6.02,3.49-8.66,6.85l-.72-.76c4.27-5.21,8.15-6.57,13.08-10.76,1.36-1.16,2.81-3.8,3.69-5.36"/>
  <path class="cls-2" d="M287.75,204.67c.43.4.26.38.73.5-1.2,1.57-1.52,2.17-2.39,3.79-.95,1.75-3.86,9.51-4.92,10.27-.51-.7-.46-1.9-.58-2-.39-.31-1.52-1.07-1.97-1.46l1.18-.18c3.34-2.24,5.79-7.39,7.95-10.92"/>
  <path class="cls-2" d="M278.62,215.77c-3.09-2.03-5.58-5.5-4.75-9.33l.28-.14c1.7,2.45,1.97,8.21,5.66,9.3l-1.18.18Z"/>
  <path class="cls-2" d="M283.82,241.32c.79-3.06,1.67-2.94,4.37-1.49l-.93,1.38c-1.19,1.13-1.58,2.87-2.63,3.68l-.42-.08c-.46-.69-.18-1.05-.31-1.68l-.07-1.81ZM291.47,241.01c1.36.75,3.51,3.02,4.64,4.21-1.03-.14-3.33-.52-4.24-.35-.51-1.6-1.23-1.76-1.72-3.09l.21-.44,1.11-.33Z"/>
  <path class="cls-2" d="M266.3,187.83c-.01-1.18.05-2.98.69-3.97,1.01.88,2.96.3,4.34.57-.58.41-.8.7-.8,1.43-1.08-.05-2.28-.25-3.21.19-.6.6-.7,1.01-1.02,1.79"/>
  <g>
    <path class="cls-2" d="M233.7,285.39c.12.19.29.3.71.53h0c-.42-.24-.59-.34-.71-.53Z"/>
    <path class="cls-2" d="M435.68,195.24c-5.54-3.4-9.43-4.34-15.81-4.49,2.08,5.86,2.31,8.85,2.99,14.99-6.33,1.45-9.8,3.59-15.24,7.09.27,6.18-.4,10.64-.89,16.73-1.86.7-2.59.97-4.2,2.25-.49-5.13-.78-11.36-.59-16.5,1.93-1.01,3.3-1.61,5.4-2.26-.18-5.41-.89-9.32-2.72-14.35,3.66-2.94,9.21-6.21,13.76-7.74.61-.21.54-.15,1-.64.59-1.94-5.21-11.09-6.79-12.77-5.12,3.06-8.89,5.82-14.67,7.64,1.47,2.28,6.22,10.32,6.66,12.64-.43,1.18-2.89,2.04-4.26,3.21l-.2-.36c-1.83-3.24-3.81-12.56-5.05-16.78-1.85-6.36-4.14-12.59-6.85-18.63-19.62-44.32-57.96-77.59-104.6-90.78-15.32-4.34-33.78-6.73-49.74-5.83h0c-35.6,1.1-69.83,13.97-97.34,36.58-4.04,3.33-7.58,7.11-11.34,10.69-18.39,17.45-31.55,39.65-39.79,63.52-2.33,6.74-3.59,14.99-6.2,21.53-1.51-1.06-3.23-1.69-4.94-2.4,1.61-4.44,4.28-9.22,6.66-13.34-5.01-1.77-10.12-5.05-14.73-7.83-1.5,2.07-6.6,10.35-6.56,12.7,1.08,1.32,1.93.67,3.22,1.4,3.71,2.09,8.17,4.31,11.42,6.99-1.05,2.79-2.56,11.06-3.09,14.21,1.92.85,4.34,2,6.29,2.65.06,5.3-.13,10.87-.24,16.18-1.78-1.36-2.33-1.41-4.5-1.62,2.51,9.84,5.42,18.02,6.62,28.16.73,6.17,2.82,13.98,4.62,19.91,11.87,38.75,37.71,71.71,72.51,92.48,37.01,22.02,81.24,28.45,122.99,17.88,10.11-2.59,21.23-6.48,30.61-11.16,38.81-18.73,68.6-52.1,82.83-92.78,1.88-5.45,3.83-11.35,5.02-16.97,2.14-10.1,3-20.22,6.35-30.08.83-2.44,1.32-5.56,2.89-7.76,3.08-3.68,10.06-6.5,14.39-7.95.97-4.82,1.18-11.04,1.37-15.98,6.26.94,10.7,3.13,16.25,6.03-1.05-4.62-2-12.48-3.49-16.49ZM120.94,291.97c1.3,1.06,2.61,2.22,3.8,3.4,3.01,2.97,4.75,1.54,7.82-.33.94.53,1.96,1.23,2.88,1.81,3.02-.2,2.72.11,4.41,1.99,1.13,1.25,9.27-1.59,9.89-2.57-.29-.74-.69-.87-1.37-1.29.38-.9.6-1.4.97-1.71-.37.31-.6.81-.97,1.71-1.2-.2-4.45-1.46-5.26-2.33l.22-.3c2.42-.58,5.38-.02,7.87.31,0,0,0,0,0,0,1.73-.84,2.1-1.19,3.39-2.54.49.5,2.15,2.2,2.62,2.35,3.79,1.2,14.03-2.8,17.95-3.91,1.16,2.4,1.86,4.93,3.41,7.17,4.56,6.63,13.92-.74,15.78-.46-.02,1.64-1.99,2.59-1.14,4.08.16.05.91.3,1.05.3,2.87.1,3.94-7.41,6.6-9.31.8-.76,2.32-1.61,3.52-1.56,7.49.32,14.78,2.74,22.35,2.93h0c2.19-.62,7.27-.51,9.7-.47,1.38-1.35,3.12-4.3,4.14-4.61.08,1.5-1.28,5.24-2.09,6.49-2.74.57-8.49-.77-11.09.27,2.38,2.78,8.1,6.59,11.92,6.95,1.86.17,10.26-1.29,11.52-1.97.11-.9.01-.71-.49-1.7.05-.24.16-.42.31-.58-.15.16-.26.34-.31.58-1.68-1.8-4.43-1.48-7.39-2.72,3.9-.93,6.31-1.4,9.61,1.26,0,0,0,0,0,0,4.59.97,10.91-2.15,14.39-5.01,4.1-3.37,6.96-8.92,9.11-13.73v-1.58c-2.76,1.19-5.27.19-7.29-1.8-.27-2.04-.48-4.24-.71-6.3,1.03.15,2,.4,3.01.64l.76,3.05c2.44.21,4.75.07,6.27,2.24l.51.83c2.18,3.53,2.9,4.23,2.9,8.3,5.96-.23,5.98.23,9.04-4.6,1.55.17,3.18.29,4.69.66-3.08,2.76-7.9,6.84-10.49,9.82,2.7,2.4,3.35,2.86,6.85,3.9-.29.91-.66,2.18-1.05,3.02-4.75,1.89-5.64.52-10.47,1.62.04,1.18.57,4.45.45,4.85-.54.39-1.62.46-2.64.46-.2,0-.41,0-.6,0-.39,0-.75-.02-1.05-.01l.51,2.15c2.17,1.76,5.28,5.25,6.92,7.54,1.57-.44,2.76-.67,4.03-1.75h0l-.23-.46-.24-.11-.4-.19c-1.63-.78-1.84-.89-3.28-2.01h0c1.42-.2,2.93-.51,4.38-.54.87-.02,1.73.05,2.52.31.67.71.46.48.47,1.78.58.48.66.46.96,1.13,2.58,3.6,3.68,5.14,5.41,9.27-5.21.83-10.9.66-16.26,1.26-19,2.13-38.36,3.95-57.48,3.82-2.86-.02-5.63-.03-8.46-.27-1.26-1.68-2.16-3.29-4.04-4.14-.85.03-1.08.19-1.85.52-.76-.14-.41.03-.97-.73-.09-.87-.18-.47.36-1.23,4.46-2.41,6.78.68,10.04,1.03,5.41.58,15.31,1.8,20.29-.17,1.04-1.66,2.45-4.44,3.45-5.77-1.63-2.52-2.49-3.45-4.64-5.55-1.67.98-3.58,2.18-5.34,2.92-.93-.26-5.2-1.58-5.9-1.36-1.45.44-1,.77-3.04.8-4.85.07-9.78.41-14.64.65l-24.14,1.01c-8.21.29-16.31-.22-24.33.32-3.56-.03-7.11-.14-10.66-.32-9.34-1.92-17.81-1.8-26.7-5.76-7.14-3.18-14.9-6.05-21.57-10.18,3.37-6.08,5.68-9.22,11.94-12.42,1.83-.94,4.95-3.65,7.05-2.52,1.54,2.2.46,8.03.57,11.34ZM160.8,264.81c-2.85,5.34-5.86,7.77-8.69,14.4.71-4.66,2.96-12.57,7.51-14.87,2.75-.51,1.3-1.92,5.78-1.3l.68.1c-1.55.38-3.96.85-5.28,1.67ZM169.28,283.89c2.04-.05,5.84-.33,6.95,1.65-1.09,1.74-5.13,1.29-7.02,1.24-3.28-.35-3.89-.23-7.11.43,2.3-1.34,4.61-3.14,7.17-3.33ZM216.06,210.07c5.33-.18,15.92,3.67,20.07,7.33,2.01,1.77,2.72,3.96,3.65,6.36.68-.13,1.21-.26,1.88-.44.1-.79.06-1.37.61-1.91,2.98-.87,8.53,1.75,9.5,4.84.37,1.16-.29,2.4-.77,3.43-1.34.14-4.69.39-5.76,1.03.45,1.32,4.33,3.07,4.68,5.13-.95,1.84-7.2.61-8.99.38-.05-7.79-4.13-3.33-6.01.54-.74,1.53-1.73,3.26-2.53,4.78,1.37,1.73,6.17,7.84,3.11,9.62-2.14-1.01-2.88-7.4-7.36-5.56-4.88,2-7.61,7.39-11.76,10.61-2.96,2.38-6.52,4.02-9.33,6.58-1.78,1.62-2.67,4.54-4.34,6.15-.48.46-2.5-.01-3.34,1.38-3.61,5.99-3.47,16.36-11.69,18.23-4.08.89-6.75.08-9.75-2.78-.14-5.08,1.23-8.54,1.46-13.23.78-15.78-.21-39.84,11.17-52.01,6.01-6.43,16.77-10.17,25.51-10.47ZM200.81,184.97c.48-1.5,1.15-2.27,2.36-3.26h0c.93.3,2.06.85,2.98,1.26l-3.15,1.81c-1.03.52-1.08.73-2.04.62l-.16-.42ZM224.37,164.04c.16.92.65,2,.49,2.86-.64-.26-.75-.69-1.24-1.38-2.09-2.69-4.07-5.9-2.52-9.32.71-1.57,1.36-3.14,2.42-4.51l.33.47c-1.36,3.73-.16,8.07.51,11.87ZM221.05,164.33c1.02,3.38-1.04,13.41-.17,17.47.09.42.03,1.98-.09,2.44-.69.54-1.38.54-2.26.69-.8,0-.83,0-1.59-.2-.32-.53-.38-1.21-.39-1.83-.11-4.92.16-15.23,3.52-19.01.62.17.43.1.98.44ZM216.54,194.11l.02.6c-1.34,1.17-2.5-.36-3.47-1.31l-2.86-2.31-3.38-.24s0,0,0,0h0c-.42-1.14-.8-4.43.14-5.29,1.19.18,3.11,3.35,3.88,4.46.47.53.93.96,1.43,1.32.33.24.67.45,1.03.65.54.29,1.12.54,1.78.77.87.5.97.51,1.45,1.35ZM233.63,156.62c-1.24-1.27-3.3-2.95-3.39-4.6.67-1.33,1.37-1.41,2.83-1.95.95-.03,1.26-.11,1.84.6-.23.63-.29.49-1.01.93l-.05.24c1.23,1.67,2.27,3.7-.23,4.78ZM236.28,152.92c-.13-.5-.08-1.02.25-1.41.9.09.91.04,1.68.59.97,1.45.26,2.44.69,3.7.81,2.37,3.23,2.69,4.43.4-1.38-.13-2.53.38-3.6-.41.29-1.46,5.39-8.84,6.48-9.17l.57.32c.92,2.1-2.61,7.08-2.33,8.31l.8.24c.98.26,1.06.24,1.7.97.85,2.3-1.82,5.8-2.5,8.23-.44,1.56-.67,2.49-.91,4.12-2.32.08-4.37.15-6.7.06.2-2.05.94-4.2-.06-5.53-.81-.17-.89-.13-1.69-.06-.43.33-.73.71-.95,1.13-.64,1.26-.47,2.86-.45,4.31-2.13-.09-3.44-.18-5.54-.49-.05-1.99-.08-3.8-.02-5.78.08-2.16.24-4.4.34-6.58,3.26,2.64,9.16,2.49,7.81-2.95ZM242.17,140.32l2.94.28c.07,3.33-.24,4.27-1.82,7.2l-2.75-1.29c-2.21-1.46-1.74.39-3.29-.2-.9-1.99,3.26-5.3,4.92-5.99ZM240.57,185.05l-.62-.45c-1.03.36-1.39.57-2.45.57-1.16-.69-1.59-1.55-1.09-2.84.6-.46.72-.48,1.42-.54,2.18-.19,2.62.73,4.06,1.6,1.55-.55,3.91-1.99,5.42-2.84.85,1.16-1.96,3.57-2.81,4.44-1.49,1.51-2.42,3.67-4.76,2.99-.57-.62-.44-.27-.45-1.06.82-.61,1.43-.82,1.29-1.86ZM263.99,150.99l.52.2c1.46,2.36,2.03,3.78,2.86,6.44-1.78,1.26-3.49,2.12-5.41,3.56-3.4,2.54-6.86,6.55-10.79,7.91-1.18.06-2.15.25-3.08-.41-3.15-4.91,12.9-14.5,15.91-17.69ZM271.17,209.02c-.81-.27-1.3-.36-1.93-.94.05-1.82,3.2-3.35,4.54-5.18,1.71-2.33,2.11-3.68,3.15-6.29,3.46,2.02,8.23,5.14,10.83,8.06.43.4.26.38.73.5,4.15,2.59,4.68,4.56,7.33,6.75l.22-.14.56,1.22-.12.18c1.78,2.73,2.19,4.17,2.53,5.7.12.51.22,1.03.37,1.61.1.39.22.8.37,1.26.15.46.33.96.56,1.51-.43.02-.88.05-1.35.08-.93.05-1.94.11-2.97.13-.02,0-.03,0-.05,0-2.62.05-5.35-.14-7.2-1.17.04,1.63.34,2.89.9,4.42,3.97.16,8.36-.23,12.13-1.54.88,4.56,1.39,8.24,1.99,12.83-1.79-.44-8.61-2.03-10.06-.72,1.1,1.84,9,2.98,10.29,6.07.36.87-.05,3.12-.19,4.15-2.14-.97-3.9-1.76-6.13-2.55-1.02,2.33-2.07,4.64-3.16,6.93-1.27-1.65-3.74-4.4-4.05-6.32-.11.04-.22.1-.34.16-.46.27-.98.74-1.52,1.26-.14.13-.27.26-.41.39-.55.53-1.11,1.07-1.66,1.48-.14.1-.27.19-.4.27-.66.41-1.28.54-1.78.1-.09-.33-.14-.66-.14-.98-.03-2.27,1.93-4.44,2.92-6.77l.11-.28c-1.19,1.13-1.58,2.87-2.63,3.68l-.42-.08c-.45-.68-.2-1.03-.3-1.64-.06.46-1.17,4.43-1.36,4.98-.28-2.82-.02-5.28.16-8.11,0,0,0,0,0,0-.8-3.9-4.83-5.46-8.25-6.55,3.16-1.4,3.52-1.81,5.33-4.68h0s-.72-.76-.72-.76c-.65.13-.55.07-1.25-.02-1.44-1.18.57-3.09,1.46-4.13-6.25-.74-1.7-4-5.19-7.6l-.3.63c2.62,4.95-3.68,9.72-4.83,15.3-3.02-1.99-15.74-7.33-14.76-11.54,1.41-1.62,8.62-5.67,10.7-6.01.68.62,1.06,1.24,1.91.68.52-1.2.67-3.78.82-5.2,1.32.11,3.04.45,3.8-.74l-.23-.38ZM305.76,276.04c-5.09.61-10.28.34-15.39-.1-1.97-.17-6.82-.35-8.36-1.44-.91-.89-1.1-2.55-1.07-3.65.18-8.74,5.39-5.85,11.08-4.6,2.83-1.46,4.96-3.53,7.12-5.82,5.89,3.59,6.37,3.7,10.02,9.75-2.01,2.33-2.39,2.95-3.41,5.85ZM309.28,283.25h0c.31.01.38.09.69.21,1.07,3.4-.35,14.03-1.45,17.51-2.3-2.02-3.05-3.67-5.97-5.74-1.38-.7-2.98-1.08-4.47-1.52-1.3-1.38-1.83-2.54-2.52-4.22,2.37-4.1,3.73-2.46,7.57-3.59,1.31-.39,4.79-2.04,6.16-2.65ZM275.45,264.08c-1.04,1.02-5.65.92-7.39,1.01-1.37.12-2.35.45-3.36-.64-.32-1.01-.35-.54-.05-1.46,1.15-1.18,5.15-1.84,7.1-2.41h0c1.8-.06,4.04,1.7,3.71,3.5ZM263.83,258.1c.85-.33,2.5-1.12,3.73-1.23.41-.04.78,0,1.05.15-.03.11-.09.22-.17.34-.32.45-.95.9-1.57,1.29-.47.29-.94.55-1.26.75-6.28,4.93-.8,4.45-4.14,8.05-.2,1.07-.26,2.08-.42,3.09-.35,2.18.7,6.52-1.27,7.78-1.37.89-5.52,8.46-5.98,10.25-.23.74-.42,1.88-.94,2.19-1.79-.81-3.48-6.31-3.8-8.23-.88.09-2.86.25-3.73.59-.77.3.34.41-.99.85-3.73-2.83-6.5-.94-9.5,1.92.9.72,1.71,1.34,1.02,2.47-2.56,1.4-4.9-1.54-7.79-2.39-4.55-1.33-6.95.01-11.26.35-2.67.21-5.89.09-8.54-.05l.78-3.46c3.74-.73,8.52-.67,13.12-1.55,2.58,1.55,7.8,4.41,10.84,3.69l.33-.58c-.33-2.51-.47-5.48-1.05-7.88-1.22-5.04-3.58-4.36-7.27-6.69-.75-.48-1.07-.72-1.26-1.51l.3-.24.43.04c2.7.28,4.24-.8,6.68-1.95,2.57,1.08,5.2,2.02,7.87,2.81,5.11-3.86,8.05-11.03,13.98-14.74,3.76,1.23,7.49,3.97,10.82,3.9ZM264.28,280.74c-.21,1-.93,1.6-1.65,2.39-.59.68-1.02,1.4-1.94.9-.56-1.38-.18-2.92.05-4.38,1.25.1,2.91-.06,3.53,1.09ZM247.05,289.81c-1.06.17-2.5.24-3.59.32-.18-1.48-.22-2.39-.24-3.87,2.65.42,4.04.33,3.84,3.55ZM237.08,257.67l.1-.58c1.41-1.53,4.95-2.62,6.98-2.99,1.06-.04,2.36.01,3.43.02-.94,2-1.77,3.24-3.21,4.88-1.35,0-2.84-.17-4.19-.29-1.37-.18-2.22-.11-3.12-1.05ZM162.56,314.96c2.23.06,5.59.05,7.72.29,1.68,0,3.85-.07,5.34.75l-.05.34c-2.05.68-6.53.44-8.77.21-1.76.01-5.68-.51-7.45-.77.11-.15.22-.27.33-.37-.11.1-.22.23-.33.37-1.74.07-7.13-1.38-8.26-2.81l.1-.36c.8.19,1.65.94,2.34,1.45.71.08.6-.03,1.35-.44l.03-.34c-1.94-.57-3.06-.93-5.06-1.17l-.21-.61c3.55.18,7.11.28,10.66.32-1.41.23-1.65.08-2.48,1.02-.15,1.67,3.49,1.9,4.73,2.11ZM201.77,319.74c-2.74,1.88-6.35,2.49-7.2,5.62-3.97.52-6.84.56-10.84.23-5.38-.49-10.79-.64-16.2-.47-4,.15-8.89.64-12.82.59-8.21-.1-17.11-.85-25.19-2.3,6-5.65,7.09-6.29,15.23-6.61,1.23-.05,2.29-.8,2.98-1.84.38.16.24.06.52.33,7.37,7.01,42.24,2.93,53.51,4.44ZM368.86,324.64c-6.78,2.37-14.41,3.9-21.46,5.58-45.62,10.43-91.77,18.37-138.26,23.8-12.85,1.5-25.72,2.88-38.59,4.15-7.79.71-17.21,1.01-24.74,2.39-3.98-1.76-6.65-4.45-9.84-7.34-4.95-4.28-10.06-8.66-14.33-13.64-3.94-4.59-8.65-9.18-11.81-14.32,7.61,1.32,15.67,2.5,23.4,2.66,3.5.07,7.01.06,10.51.08,8.37.06,16.73.05,25.1-.02,8.55-.04,17.09-.02,25.64.04,1.7.03,3.42.09,5.12.16,15.14.68,30.24-1.58,45.32-2.41,3.52-.19,7.03-.27,10.54-.57l25.1-1.99c3.95-.31,7.8-.77,11.76-.98.96,1.46,2.38,3.19,4.23,3.38,4.35.43,8.83.16,13.2.22,1.98.03,5.47-.02,7.05-1.29,3.03-2.44,4.7-7.34,5.24-11.07,4.17,1.89,5.93,1.93,10.47,1.73,5.96-.26,11.62-1.33,17.53-2.06h0c1.26-.14,2.7-.28,3.94-.05,7.55,1.4,14.92,1.07,22.58,1.15-1.39,2.51-5.18,9.52-7.7,10.4ZM363.16,284.57c1.2-.04,2.2-.34,2.9.7-.05,1.05-.61,1.74-1.17,2.67l-.6.69h-.43c-.8-1.06-.69-2.74-.7-4.06ZM377.37,288.2c-2.23-.83-2.38-5.61-2.5-7.61-3.91.21-8.22.93-12.13,1.44-.54.07-3.05,1.29-3.04,1.3-1.04-.24-2.11-.73-3.4-.58-4.58.55-9.55,1.42-14.07,1.92-2.95.33-8.28-2.85-11.73-2.45-.72.08-1.41.2-1.87.82-.29.39-.16.36-.11.97.95,1.55,1.98,2.02,3.56,2.73,1.58,1,1.81,1.06,2.29,2.85h0s-.12.43-.12.43c-1.46-.1-.87-1.33-3.63-1.49,0,0,0,0,0,0h0c-.75,1.34-.3,4.52-.97,6.96-2.92,1.65-3.99,1.93-7.3,2.76-2-7.82-4.95-12.25-5.28-20.83,12.99-1.75,25.93-2.02,38.99-2.88,5.79-.38,10.68-4.42,16.69-4.57,4.96-.13,6.29,16.77,4.62,18.21ZM384.74,298.78l-1.2,1.86c-3.25-9.88-3.96-14.7-.29-24.76,1.95.95,3.9,3.67,4.41,5.79,1.71,7.11.55,10.86-2.92,17.11ZM389.52,288.15c-.64-7.62-2.34-19.82-9.72-24.09-1.01-.59-2.11-1-3.26-1.2-3.44-.58-15.33-.49-19.08.36-4.94,1.11-7.37,6.4-9.62,10.38-3.8.51-10.38.3-14.56.61-5.69.41-11.05,1-16.72,1.61-2.57-1.74-3.22-2.01-6.24-2.65.4-1.66.43-2.31.55-4-2.12-4.35-6.82-6.29-10.3-9.92,5.3-8.43,5.3-15.63,4.29-25.18-1.6-15.09-6.84-23.99-18.67-33.12-2.66-2.05-5.62-3.63-8.17-5.74l-.33-.28c.55-6,1-9.92-6.35-10.48-.35-.07-.73-.08-1.12-.08.39,0,.77.01,1.12.08-.58.41-.8.7-.8,1.43,11.31,1.02,4.32,8.62-.51,12.3-3.07,2.33-16.48,9.15-19.89,6.34.07-.88.53-1.37,1.25-1.94,5.85-4.72,12.01-7.23,14.92-14.72-.01-1.18.05-2.98.69-3.97.13.11.27.2.42.27-.15-.07-.29-.16-.42-.27.28-2.52.41-5.73.56-8.26.58-9.4,3.57-20.85-3.9-28.39-5.18-5.23-14.26-7.2-21.36-7.9-2.1-.21-5.23.56-7.26,1.05-14.45,3.94-17.96,22.08-19.69,34.89-.61,4.51-.41,11.17-.43,15.89-7.6-7.84-12.9-14.48-17.69-24.34-1.95-4.01-4.1-7.16-5.49-11.61-1.64-5.24-2.48-10.91-5.2-15.67-1.92-3.2-5.32-5.01-8.44-6.89.3-1.07,1.2-4.34,1.25-5.38.15-3.37-.33-7.1-.25-10.51.14-5.98,1.52-11.38.61-17.33-6.39-2.03-4.48,14.44-6.88,16.38l-.56-.21c-.88-.95-1.23-2.23-1.7-3.47-1.84,1.07-4.57,2.06-5.86,3.62-.39.47-.11,1.34.02,1.92.68.97,1.16,1.49,1.45,2.64h0c-.48.01-.86-.36-1.32-.8-.02-.02-.04-.03-.06-.05-.43-.41-.95-.85-1.66-1.09-.05-.02-.09-.04-.14-.05-6.16,2.98-1.02,7.82-.29,12.35.98,6.02.39,12.32,1.64,18.32,1.22,6.09,4.55,11.05,6.7,16.63,4,10.38,7.68,21.13,12.96,30.96,3.25,6.05,10.24,11.88,16.25,15.16-10.04,6.01-15.82,10.83-18.8,22.88-1.98,8.04-2.94,17.38-3.32,25.66-.25,5.56.17,11.55-.66,17.04-1.17.18-2.47.34-3.6.64-.04-13.57.25-15.58-14.68-17.36-6.17-.73-19.56-.24-20.51,8.7-.29,2.69,6.64,6.93,8.78,9.25-.93,1.79-2.12,3.37-1.72,5.25.73,1.15,4.07,2.95,5.73,4.35-2.32.15-4.73.29-7.03.59-2.28.3-10.09,2.84-11.97,1.86-.13-1.06.73-2.18.67-2.36-1.27-3.61-2.22-5.19,2.18-6.09,0,0,0,0,0,0,.07-.02,4.73-2.53,4.89-2.71h0s0,0,0,0c-.31-.28-.55-.45-.89-.7-2.09-.36-7.71.95-10.25,1.39-2.83-2.65-4.77-4.97-9.05-5.04-9.96-.16-15.45-1.95-19.13,9.24-2.54,7.71-2.6,13.24-2.97,21.11h0c-1.67-2.46-2.77-4.34-4.04-7.05-17.75-38.51-19.61-82.46-5.17-122.32,14.5-39.93,44.26-72.47,82.74-90.47,38.91-18.06,83.41-19.91,123.69-5.15,40.07,14.9,72.57,45.11,90.36,83.98,17.89,39.04,19.32,83.62,3.99,123.73ZM184.45,149.53h0c1.04-.08,1.32-.26,2.01.46.41,1.14-.04,2.47-.34,3.69-2.27-.7-2.88-2.02-1.67-4.14ZM181.2,145.46l-.45-.14c-.22-.58.37-1.44.69-2.07.84-1.68,1.26-3.06,1.63-4.88h0c.16.07.53.33.69.44,1.04,2.69-.89,4.72-2.56,6.65ZM190.44,171.85c-.51-1.07-.56-.84-1.72-1.62,1.47-2.31,2.58-3.46,4.32-5.55-.6-.49-.94-.58-1.66-.91l.02-.91.98-.42c2.13.86,4.06,6.14,4.88,8.15.5,1.21.66,1.59.12,2.76-.54,1.36-.54,4.91-.59,6.45-1.55-3.06-.87-3.63-1.52-6.3-2.49.34-6.3,4.95-9.3,4.17.94-1.86,4.43-2.54,4.46-5.81Z"/>
  </g>
  <path class="cls-2" d="M56.19,221.65l.96-.03c.63.47.84,2.41,1.05,3.39,1.08,4.93,2.54,9.76,4.38,14.46-5.32-2.42-7.62-2.69-13.33-1.48-1.42.57-2.08.43-2.95-.82-2.18-3.13-3.41-7.57-4.76-11.12.95-.27,3.16-1.3,4.14-1.74,3.85-1.72,6.36-2.37,10.5-2.66"/>
  <path class="cls-2" d="M56.2,205.95c4.11.39,8.16,2.5,11.61,4.63,1.21.75,2.14,1.59,3.43,2.29-.2,5.51.18,11.73,1.64,17.04-3.94-3.44-10.22-6.7-15.21-8.33-1.33-4.93-1.57-10.53-1.47-15.64"/>
  <path class="cls-2" d="M56.59,190.9l2.6-.17c-1.55,3.43-2.82,11.14-3.12,15.09-5.24.67-8.69,2.35-13.46,4.5l-2.23,1.17c.34-3.08,1.51-13.88,3.14-16.06,2.03-2.71,9.66-4.21,13.06-4.53"/>
  <path class="cls-2" d="M428.79,176.8c.58.18,15.11,6.4,15.17,6.44,2.43,1.8,6.71,11.1,7.18,14.18-4.42.69-9.73.49-13.8-1.9-3.63-2.13-4.2-11.23-6.9-14.85-.39-.53-1.51-3.28-1.66-3.88"/>
  <g>
    <path class="cls-2" d="M336.47,45.65c-3.27-2.25-13.01-7.48-16.69-8.17-.71.73-1.4,1.6-1.88,2.51-4.79,9.12-9.28,18.39-14.14,27.48-.79,1.49-1.51,2.82-2.11,4.4,7.37,4.71,16.94,9.73,25.83,9.4,5.78-.82,9.35-2.97,12.81-7.49,7.61-9.91,6.69-20.92-3.81-28.13ZM324.47,72.3c-1.92.36-2.33.22-4.15-.17-7.86-1.7-5.63-2.75-2.8-8.54,2.22-4.56,5.42-9.73,7.18-14.62,3.95-.12,8.33,3.78,9.37,7.39,1.88,6.55-3.64,13.86-9.6,15.95Z"/>
    <path class="cls-2" d="M297.14,30.54c-5.01-2.94-16.36-5.36-21.68-5.25-2.3,3.85-3.79,17.46-5.41,22.35-.89,2.71-3.22,12.72-2.83,14.99,1.51,1.16,7.45,1.93,9.45,2.03.71-2.65,2.41-12.49,4.02-13.61,7.1-.41,5.14,10.59,5.96,15.44.33.68.34,1.02,1.23,1.26,2.91.77,6.14,1.32,9.09,1.9-.3-4.66-.28-9.54-.85-14.18-.12-.94-2.06-4.5-2.58-5.47.08-.1.16-.2.24-.3l.42-.06c2.64-.42,5.34-2.77,6.56-4.83,2.89-4.88,1.04-11.53-3.63-14.27ZM288.82,44.01c-2.03,1.11-4.37.3-6.61-.15-.14-2.95.41-7.36,2.13-9.84,6.28.81,10.14,4.72,4.48,9.99Z"/>
    <path class="cls-2" d="M254.28,35.77c-1.22-4.05-2.45-10.2-4.47-13.73-3.74,0-9.21.07-12.84-.52-1.71,3.25-3,8.12-4.1,11.73l-4.78,15.5c-1.11,3.73-2.34,8.44-3.75,11.95,3.92.32,7.22.48,11.19-.03.79-2.81,1.12-5.7,1.48-8.6,1.71-.11,9.38-.69,10.48.09.26.52.51,1.03.74,1.56.92,2.76,1.44,4.88,1.83,7.77,3.32,0,8.35-.1,11.5.29-2.72-8.26-4.73-17.63-7.27-26.01ZM245.74,44.42c-.71.33-1.94.19-2.78.16l-3.96-.11c1.22-3.21,2.14-10.07,2.99-13.86h0c.61.23.82.35,1.14.89,1.27,2.16,3.11,10.72,2.61,12.92Z"/>
    <path class="cls-2" d="M213.03,23.19c.19-.02.06-.02.35.2-.02.9-7.3,15.45-8.18,18.69,2.35,2.66,16.11,16.76,16.27,18.93-.95,1.13-7.18,1.48-10.03,2.58l-.33.13c-4.72-3.48-6.92-8.81-11.18-12.6-.38-.34-1.59-.71-2.11-.88-1.26,5.97-.21,9.71,1.34,15.67l-2.07.51c-2.82.56-5.18,1.08-7.95,1.8-2.8-12.82-5.51-25.66-8.13-38.52,3.18-.64,6.8-1.58,10-2.31,1.46,5.55,2.08,10.57,2.82,16.23,1.49-2.42,2.13-3.6,3.14-6.25,1.23-3.23,1.93-7.93,3.9-10.57,1.88-2.52,9.04-3.42,12.15-3.61"/>
    <path class="cls-2" d="M72.92,103.63c1.33.47,5.8,3.94,7.01,5-1.65,2.63-6.14,9.72-8.02,11.85,1.83,1.82,2.64,2.48,4.93,3.64,2.21-1.96,6.47-9,8.2-11.68,1.32,1.25,5.47,3.93,7.17,5.07-3.31,3.43-5.06,8.24-8.29,11.35,1.42.94,4.7,3.42,6.23,3.41,2.46-1.34,6.45-9.66,8.96-12.26,1.54.72,3.45,2,4.94,2.93l2.21,1.31c-1.04,2.24-3.02,4.82-4.38,6.96-3.25,5.1-7,10.19-10.07,15.37-1.82-1.44-5.3-3.56-7.33-4.88l-15.59-10.07c-3.1-2.03-7.03-4.53-9.83-6.85,4.74-6.81,9.05-14.3,13.88-21.18"/>
    <path class="cls-2" d="M53.06,136.35c1.2.22,7.04,2.72,6.96,3.79-.23,3.29-3.99,10.06-5.61,12.77,1.83,1.12,3.28,2.19,5.24,3.32,3.09-3.27,3.41-7.74,5.93-11.22,1.9-2.62,6.63,1.05,8.06,2.59-1.93,3.79-3.66,8.2-5.65,11.81,2.74,1.63,3.3,2.41,6.52,3.46,2.07-3.68,4.77-10.13,6.36-14.03,2.45.56,3.6,1.11,5.8,2.25l2.22,1.31c-3.3,7.86-7.46,15.36-10.66,23.38-3.57-.94-9.62-4.06-13.26-5.77-7.42-3.47-15.46-6.86-22.64-10.69,3.67-6.66,6.77-15.81,10.73-22.96"/>
    <path class="cls-2" d="M100.17,75.25c.5.36,4.07,6.65,4.89,7.82-4.56,1.32-7.76,4.8-10.13,8.78.95.92,1.86,1.59,2.9,2.4,6.77-2.07,12.89-7.42,20.12-3.61,6.6,3.48,6.86,11.67,3.53,17.46-2.26,3.94-8.55,10.18-12.99,11.34l-.12-.06c-2.25-1.18-3.16-3.86-5.16-6.41,2.74-2.33,10.57-6.09,11.29-10.46.14-.87-1.92-2.44-2.65-3.05-5.57,1.79-12.03,6.03-17.94,4.61-5.72-1.38-9.16-8.57-7.37-14.01,2.21-6.73,7.74-11.48,13.63-14.8"/>
    <path class="cls-2" d="M433.42,287.32c-1.46-7.48-10.92-11.85-18.01-11.23-1.98.43-4.3,1.2-5.85,2.51-12.95,10.86-3.08,29.02,12.51,27.17,8.84-1.89,13.04-9.78,11.36-18.44ZM422.81,297.54c-5.65.25-11.45-1.8-13.14-7.77,1.24-3.28,1.88-4.76,5.57-5.4h0c6.02-.33,9.99,2.4,13.09,7.28-1.17,2.76-2.39,5.1-5.52,5.89Z"/>
    <path class="cls-2" d="M91.65,324.14c-2.48-7.41-8.19-11.66-16-10.77-8.7,1.38-15.41,8.11-13.84,17.39.67,3.91,2.88,7.38,6.13,9.65,3.07,2.14,6.37,2.86,10.06,2.31,5.55-1.65,9.76-3.68,12.64-8.93,1.62-2.95,2.07-6.48,1.01-9.65ZM75.72,334.92c-.88.15-2.02.21-2.93.29-.33-.13-.66-.28-.99-.43-7.25-3.47-2.14-10.82,3.14-12.76,1.13-.41,1.7-.66,2.93-.93,5.18-.42,5.95.29,7.77,5.09-1.98,5.06-5.03,7.02-9.92,8.74Z"/>
    <path class="cls-2" d="M134.35,48.97c1.21.19,4.45,5.72,5.39,7.1-1.9,1.35-6.92,4.19-7.96,5.9.41,1.54,15.14,22.38,17.2,25.22-3.4,1.46-5.57,4-8.95,5.66-1.73-2.67-3.5-5.31-5.31-7.93-4.21-5.65-7.7-11.4-12.21-16.84-2.51,1.61-5.1,3.58-7.53,5.35-2.16-1.87-4.26-4.45-5.24-7.16,2.03-1.9,7.35-5.33,9.95-7.1,4.87-3.31,9.79-7,14.64-10.21"/>
    <path class="cls-2" d="M426.99,138.25l.29.04c1.52,1.51,10.2,24.31,11.95,28.02-2.77,1.99-5.02,2.46-8.01,3.95-1.24-3.14-2.9-5.99-3.53-9.35-6.11,1.87-11.93,4.44-17.85,6.87-2.23.9-8.82,4.1-10.58,3.59-1.29-.92-3.11-6.31-4.02-8.39,3.3-2.39,9.24-4.47,13.16-6.03l15.26-6.06c-1.68-3.27-2.8-6.05-4.08-9.45,3.09-.88,4.74-1.5,7.41-3.2"/>
    <path class="cls-2" d="M392.48,314.7c.29.02.38.02.64.06,1.21.2,20.02,12.28,22.33,13.88.76.52,1.6,1.06,2.11,1.83.02-.08-3.42,5.6-3.21,5.47-3.81,2.37-19.83-.77-23.53-1.52,2.27,1.54,4.62,3.14,6.93,4.61,4.01,2.56,7.03,3.57,10.31,7.11-.85,1.16-1.8,2.66-2.6,3.88-.82.87-.85,1.11-1.84,1.27-3.53-2.27-6.97-4.58-10.54-6.81-4.46-2.8-9.25-5.59-13.47-8.7,1.54-2.66,3.06-5.12,5.05-7.48,5.75-.55,14.47,1.26,20.51,1.93-5.38-2.98-11.03-6.46-16.33-9.63,1.05-1.36,2.6-4.25,3.63-5.91"/>
    <path class="cls-2" d="M98.01,334.7l.34.09c2.24,2.1,4.3,4.62,5.7,7.35-1.64,4.39-6.37,14.91-8.59,18.75,4.85-4.01,8.85-8.37,14.11-12.13,2.27,1.34,3.48,2.7,5.27,4.64-1.77,1.95-5.55,4.98-7.71,6.83-4.01,3.45-8.2,6.87-12.28,10.25-.83.69-2.35,1.98-3.4,1.85l-5.03-6.26c1.33-1.76,3.35-6.7,4.25-8.87,1.7-4.1,3.18-7.49,5.23-11.42-4.66,3.5-10.62,9.07-15.37,13.01-2.33-1.84-3.19-3.31-4.85-5.72,4.5-3.11,8.31-6.54,12.45-10.07,3.26-2.78,6.7-5.43,9.89-8.3"/>
    <path class="cls-2" d="M150.28,380.93c1.41,1.42,5.79,3.55,7.76,4.21-.05,6.88.44,14.22-.17,20.93,2.74-5.08,5.16-11.1,7.88-16.45,1.49.46,5.35,1.55,5.99,2.98-.59,2.25-1.42,4.18-2.53,6.23-3.47,6.45-6.62,12.98-9.82,19.56-.77.19-1.55-.15-2.39-.37-2.43-1.05-3.29-1.64-5.26-3.38-.31-5.05-.2-16.82.16-21.87-3.32,5.09-6.28,13.67-9.59,18.32-2.52-2.02-2.81-2.45-5.92-3.16,1.48-3.7,3.7-7.64,5.53-11.27,2.66-5.29,5.19-10.73,8.35-15.73"/>
    <path class="cls-2" d="M324.99,383.61l.42.07c4.33,7.91,8.44,17.95,12.33,26.3-2.44,1.27-4.96,2.65-7.58,3.46-2.11-1.52-16.56-13.46-17.14-13.49.39,1.3,1.61,3.59,2.3,4.84,2.01,3.65,3.48,9.3,6.48,12.09-1.5,1.38-2.65,1.99-4.42,2.91l-1.93.84c-3.52-4.84-6.81-13.79-9.59-19.35-1.22-2.45-2.03-4.77-3.68-7.12,3.18-1.08,5.15-2.82,8.73-3.62,4.47,2.16,11.7,9.17,16.21,12.52-1.61-3.86-7.28-12.62-7.42-16.56-.03-.87,4.2-2.46,5.28-2.9"/>
    <path class="cls-2" d="M413.21,247.03c5.48.3,10.2,1.17,15.61,1.83,4.35.52,8.72.86,13.09,1-.04,2.88-.26,5.76-.65,8.62-5.53,2.79-14.58,5.02-20.93,7.89,3.48.49,7.43.52,10.97.84,3.01.27,5.68.66,8.66,1.13-.06,2.01-.28,4.28-.42,6.3-.18.65.01.39-.5.85-8.93-.84-19.44-2.48-28.45-3.65.05-2.86.28-5.89.34-8.83,2.4-1.05,5.26-2.24,7.73-3.08,4.81-1.64,7.41-1.91,11.9-4.6-4.11.51-13.49-1.04-17.99-1.61.15-2.18.42-4.5.62-6.68"/>
    <path class="cls-2" d="M379.91,75.46c1.59.27,6.2,5.78,7.48,7.19-6.16,7.23-15.69,14.53-21.83,21.75,2.64,1.84,8.61,8.45,10.68,11.05-2.16,1.87-4.42,3.67-6.21,5.87-3.77-4.61-13.6-14.45-18.05-18.77,2.8-2.46,6.34-6.24,9.08-8.92,6.24-6.11,12.53-12.17,18.87-18.18"/>
    <path class="cls-2" d="M259.98,420.41c2.04-2.04,3.97-4.91,3.9-7.9-.05-1.92-.87-3.74-2.28-5.05-2.99-2.79-7.83-2.69-11.64-2.27h0c-3.37.29-5.84.81-9.08,1.22.48,9.57,1.95,18.98,2.46,28.72,2.65-.08,5.32-.14,7.91-.69-.52-3.65-.88-7.28-1.38-10.85,3.1-.05,4.45-.5,5.78,2.63,1.03,2.49,2.21,5.58,3.35,7.99,2.47-.4,5.28-.78,7.7-1.3-1.64-4.21-3.12-9.96-6.72-12.49ZM256.28,414.8c-.18,1.07-1.26,1.77-2.2,2.28-1.77.68-2.3.84-4.16,1.18-.2-1.58-.79-6.11-.23-7.4l.61-.23c2.2-.02,6.65.16,5.98,4.17Z"/>
    <path class="cls-2" d="M346.42,369.24l.97.08c2.17,1.39,2.36,3.55,2.9,6-.17.04-.35.07-.52.11-8.66,2-14.16,11.39-4.71,17.54,2.46,1.6,6.09.76,8.77-.13.65-.92,1.25-1.84,1.86-2.79-1.36-1.22-1.5-2.01-2.15-3.69-.31.27-.63.53-.95.79-1.64,1.32-2.39,1.1-4.36.89-.63-1.42-1.46-3.12-1.83-4.6,3.09-2.01,5.96-4.1,8.95-6.26.91,1.6,2.88,3.99,4.07,5.52,1.45,2.07,3.92,5.77,5.58,7.4-4.83,5.7-12.88,13.44-21.27,11.28-3.82-.98-7.51-4.44-9.45-7.83-1.92-3.33-2.39-7.3-1.3-10.99,1.99-6.89,7.62-10.17,13.43-13.32"/>
    <path class="cls-2" d="M132.04,369.54c-2.78,1.62-5.14,3.9-7.71,5.76-5.36,3.9-10.99,8.89-16.42,12.52l.22.15c.75.53,2.25,1.63,2.9,2.27,4.19,4.18,5.21.47,9-1.83,1.84,1.05,5.7,2.86,5.6,5.18-.49,2.43-.96,3.23-2.38,5.23,2.61,2.21,4.35,3.92,7.49,5.34,2.03-6.44,4.22-12.84,6.55-19.18.83-2.32,2.98-7.63,3.44-9.64-1.11-1.04-7.53-5.83-8.68-5.81ZM129.2,387.11c-1.09-.38-1.8-.74-2.82-1.24-.66-.57-1.41-1.42-2.03-2.06,2.39-1.57,5.07-4.11,7.25-6.06l.28.33c.08,2.17-2.07,6.33-2.68,9.04Z"/>
    <path class="cls-2" d="M230.84,406c-2.25-1.18-7.43-1.16-10.25-1.3-2.13,4.63-4.24,10.91-6.16,15.76-1.32,3.33-3.78,9.25-4.59,12.41,7.09,1.08,8.28,2.32,9.6-5.37,3.04.01,5.39.16,8.41.62l.4,6.33c2.51.5,6.17.85,8.73.91-.61-3.71-5.16-28.18-6.13-29.36ZM224.26,421.81c-.87-.01-2.1.11-2.7-.37.05-.69,2.49-8.24,2.95-10.03,1.15.72,2.07,8.78,2.32,10.44l-2.57-.05Z"/>
    <path class="cls-2" d="M187.65,397.82c3.44.36,4.27.76,7.49,2.2-1.1,4.07-2.1,7.09-2.63,11.38,4.18-3.08,6.05-6.92,10.27-9.49,1.91.2,5.91.7,7.59,1.34.26.27.42.3.37.71-.22,2.1-9.06,8.3-10.99,9.89,1.62,4.95,3.06,10.24,4.49,15.27.34.92.68,1.85,1.02,2.77l-.2.37c-1.99.47-6.99-1.58-8.87-2.73-.69-2.33-2.04-11.22-3.85-11.89-3.15,1.05-3.35,9.03-4.21,10.35-2.02.65-5.79-1.25-7.85-2.11,2.14-5.5,3.29-11.86,4.76-17.58.51-1.98,1.8-9.05,2.62-10.46"/>
    <path class="cls-2" d="M376.63,338.69c1.66.93,4.67,4.42,6.51,5.78,8.1,5.96,16,13.05,7.92,23.32-9.33,11.85-20.95-1.1-28.47-7.87-.76-.76-1.55-1.63-2.29-2.42,1.51-1.25,3.87-4.13,5.24-5.7,1.89,2.04,15.12,13.98,17.18,13.4,11.85-3.32-1.58-11.95-5.51-15.42-1.83-1.61-4.11-3.58-5.88-5.33,1.71-1.97,3.48-3.89,5.29-5.77"/>
    <path class="cls-2" d="M62.99,244.39c.5-.08,2-.1,2.58-.12.9,4.92,1.07,13.22,1.44,18.49-2.43.6-3.68.54-6.14.45-.58-3.58-.4-7.33-1.03-10.92l-4.43.41c-.03,3.62.39,6.96.56,10.56-2.44.88-3.62.83-6.17.85-.65-3.5-.26-6.82-.75-10.04l-.39-.25c-1.58,0-3.5.16-5.1.25.15,3.7.7,8.28,1.08,12.03-2.29.32-4.09.53-6.4.67-.48-6.45-1.57-13.13-2.09-19.71,8.96-1.27,17.89-1.74,26.85-2.69"/>
    <path class="cls-2" d="M403.97,101.98c1.1.46,5.61,7.07,6.55,8.43-2.09,1.94-8.12,6.03-10.74,7.92-6.95,4.96-13.83,10.02-20.64,15.18-1.17-.69-5.31-6.6-6.54-8.24,3.24-2.91,7.02-5.2,10.47-7.83,6.82-5.19,14.4-9.9,20.91-15.45"/>
    <path class="cls-2" d="M361.72,60.97c2.28.98,6.3,4.77,8.08,6.56-1.65,1.79-4.11,5.16-5.7,7.17l-11.81,15.05c-1.42,1.83-4.85,7.05-6.45,7.96-3.12-1.35-5.54-4.33-8.64-6.07,2.35-2.47,4.54-5.55,6.7-8.21,5.9-7.26,11.65-15.5,17.83-22.46"/>
    <path class="cls-2" d="M416.55,120.54c1.38.3,4.33,6.65,5.67,8.43-2.26,1.99-10.07,6.38-13,7.97-6.63,3.6-13.88,8.39-20.48,11.73l-.28.09c-1.2-.6-4.43-7.43-5.27-9.14,10.45-5.5,23.02-13.03,33.36-19.06"/>
    <path class="cls-2" d="M154.97,39.78c1.03.5,5.2,10.55,5.99,12.36,2.88,6.73,5.89,13.41,9.03,20.03.24.53,1.18,2.45.95,2.8-1.15,1.73-6.64,4.04-8.46,4.58-.3-.01-.43-.08-.73-.17-1.17-1.83-5.69-12.42-6.82-15.11-2.59-6.17-6.94-14.61-8.96-20.66,2.97-1.36,5.97-2.64,9.01-3.83"/>
    <path class="cls-2" d="M60.75,267.35c7.78-.43,11.31,9.21,11.51,15.43.09,2.77-4.44,2.14-6.1,1.9-.97-4.03-.19-4.75-2.13-9.12-.99.02-2.4.2-3.42.3-1.1,7.92-.09,15.68-10.91,15.42-7.87-1.88-9.8-11.54-9.04-18.42,2.01-.17,3.98-.24,6-.32.38,6.2-.24,7.28,3.79,12.31,4.97-6.79.35-14.37,10.3-17.51"/>
    <path class="cls-2" d="M285.08,399.61c.65-.09.51-.08,1.17-.03,1.4,1.26,2.67,3.95,2.04,5.83-1.04.88-5.65,1.18-7.21,1.36.77,2.85,4.69,20.34,4.51,22.2-1.18,1.44-5.27,1.58-7.26,1.79-.35-1.78-.84-3.72-1.25-5.5-.89-5.36-2.51-11.29-3.8-16.63-1.91.77-4.58,1.49-6.6,2.1-1.16-1.71-2.28-4.27-1.54-6.32,1.44-1.35,16.76-4.14,19.93-4.79"/>
    <path class="cls-2" d="M73.47,288.39c.58-.13.54-.14,1.11.05,2.03,7.2,5.62,13.97,7.39,21.28-2.45.97-3.62,1.05-6.19,1.22-.86-3.21-1.12-3.84-2.95-6.62-1.99,1.35-11.04,4.55-13.84,5.6l-6.96,2.66c-.75-2.4-2.41-4.63-2.25-7.13.52-.99,18.49-7.59,21.31-8.69-1.79-2.32-2.35-4.48-2.86-7.27,1.93-.58,3.27-.88,5.25-1.1"/>
    <path class="cls-2" d="M118.79,357.96c1.74.03,4.76,3.21,5.2,4.82-.58,1.99-17.05,17.81-19.88,20.68-1.2-.35-4.67-4.08-5.75-5.18,3.01-3.54,7.53-7.79,10.86-11.2,2.27-2.33,7.21-7.47,9.57-9.12"/>
    <path class="cls-2" d="M398.69,302.96c1.38.96,5.71,2.96,7.36,3.77,6.14,3.01,12.65,5.51,18.51,9.05-.52,1.69-2.1,5.7-3.41,6.79-8.17-4.33-18.65-8.17-26.3-12.76.99-2.53,2.38-4.6,3.83-6.86"/>
    <path class="cls-2" d="M296.52,395.59l.17.03c1.2,1.4,9.27,24.73,10.16,27.65-2.46.93-4.21,1.75-6.57,2.88-1.46-1.87-2.71-6.31-3.63-8.6-2.44-6.05-4.41-13.2-6.92-19.15,2.45-.72,4.53-1.67,6.8-2.82"/>
  </g>
</svg>