<?xml version="1.0" encoding="UTF-8"?>
<svg id="Layer_1" data-name="Layer 1" xmlns="http://www.w3.org/2000/svg" viewBox="0 0 1764.15 355.73">
  <defs>
    <style>
      .cls-1 {
        fill: #b0935d;
      }
    </style>
  </defs>
  <polygon points="36.73 1.17 0 68.26 171.89 68.26 139.08 74.63 86.68 290.11 163.08 355.73 223.32 67.77 306.08 67.77 356.03 1.17 36.73 1.17"/>
  <polygon points="217.11 232.32 288.94 133.07 423.45 133.07 409.41 63.2 372.52 119.36 295.8 119.36 380.52 1.17 476.99 1.17 524.5 195.1 521.07 228.4 445.65 228.4 433.9 187.27 342.81 187.27 310.98 232.32 217.11 232.32"/>
  <polygon points="556.66 1.17 639.26 1.17 613.47 166.37 706.19 166.37 696.39 228.08 528.25 228.08 556.66 1.17"/>
  <polygon points="728.47 83.93 707.66 228.08 914.81 228.08 922.65 165.72 794.83 165.72 798.26 138.54 897.43 138.54 905.75 83.93 728.47 83.93"/>
  <polygon points="740.96 1.17 942.24 1.17 932.2 65.32 732.14 65.32 740.96 1.17"/>
  <polygon points="928.53 228.08 961.09 1.17 1051.94 1.17 1125.15 118.21 1141.31 1.17 1216.49 1.17 1182.2 228.08 1106.54 228.08 1020.59 93.48 1001.99 228.08 928.53 228.08"/>
  <polygon points="1469.8 0 1429.85 226.83 1504.09 226.83 1544.05 0 1469.8 0"/>
  <path d="M1427.82,35.66c-8.84-12.48-20.84-21.24-36-26.27-7.37-2.72-15.69-4.77-24.95-6.14-9.27-1.36-19.26-2.04-30-2.04h-98.21l-9.34,52.85h87.66c17.47,0,29.89,2.78,37.26,8.34,7.37,5.56,11.05,14.84,11.05,27.84,0,6.29-.63,13.53-1.89,21.71-7.37,42.16-28.74,63.23-64.11,63.23h-16.74l18.77-105.86h-74.71l-28.06,158.71h97.58c24.21,0,46.37-3.98,66.48-11.96,20.1-7.97,36.26-20.55,48.47-37.75,13.27-18.25,22.42-41.21,27.47-68.9l1.58-11.96.95-15.1c0-18.66-4.42-34.24-13.26-46.72"/>
  <path d="M1750.89,35.66c-8.84-12.48-20.84-21.24-36-26.27-7.37-2.72-15.69-4.77-24.95-6.14-9.27-1.36-19.26-2.04-30-2.04h-98.21l-9.35,52.85h87.66c17.47,0,29.89,2.78,37.26,8.34,7.37,5.56,11.05,14.84,11.05,27.84,0,6.29-.63,13.53-1.89,21.71-7.37,42.16-28.74,63.23-64.11,63.23h-16.74l18.77-105.86h-74.71l-28.06,158.71h97.58c24.21,0,46.37-3.98,66.48-11.96,20.1-7.97,36.26-20.55,48.47-37.75,13.27-18.25,22.42-41.21,27.47-68.9l1.58-11.96.95-15.1c0-18.66-4.42-34.24-13.26-46.72"/>
  <path class="cls-1" d="M226.16,268.59h39.41c11.74,0,19.89,1.49,24.44,4.46,4.55,2.97,6.83,7.32,6.83,13.04,0,6.17-1.49,11.61-4.46,16.32-2.97,4.71-7.36,7.77-13.15,9.2,4.29,1.73,7.11,3.39,8.47,4.97,1.58,1.51,2.37,4.4,2.37,8.69,0,1.96-.23,4.63-.68,8.02l-1.13,6.32-.9,5.53c.23,1.66.98,2.48,2.26,2.48l-.45,2.37h-26.87l-.11-2.93c0-2.11.22-4.85.68-8.24l.9-9.15c0-3.69-1.17-5.97-3.5-6.83-2.33-.86-6.59-1.3-12.76-1.3h-3.95l-5.08,28.45h-26.65l14.34-81.41ZM249.53,287.56l-2.93,16.15h11.29c8.13,0,12.53-2.64,13.21-7.9.23-1.5.02-2.88-.62-4.12-.64-1.24-1.75-2.24-3.33-2.99-1.58-.75-3.2-1.13-4.85-1.13h-12.76Z"/>
  <path class="cls-1" d="M337.38,268.59h27.21l14.79,81.41h-26.53l-1.35-10.84h-26.65l-4.86,10.84h-25.97l43.36-81.41ZM332.97,322.22h16.82l-3.27-29.13-13.55,29.13Z"/>
  <path class="cls-1" d="M435.27,268.59h26.76l-8.81,50.58c-2.18,11.97-6.77,20.47-13.78,25.52-3.24,2.41-6.89,4.27-10.95,5.59s-8.28,1.98-12.65,1.98c-18.89,0-28.34-7.75-28.34-23.26,0-.98.04-2.03.11-3.16.07-1.13.26-2.65.56-4.57.3-1.92.49-3.11.57-3.56.45-1.36.75-2.37.9-3.05h23.82l-1.58,10.39c0,4.89,1.77,7.34,5.31,7.34,2.11,0,3.95-.9,5.53-2.71,1.58-1.8,2.6-4.06,3.05-6.77l9.48-54.31Z"/>
  <path class="cls-1" d="M500.53,268.59h27.21l14.79,81.41h-26.53l-1.35-10.84h-26.65l-4.86,10.84h-25.97l43.36-81.41ZM496.13,322.22h16.82l-3.27-29.13-13.55,29.13Z"/>
  <polygon class="cls-1" points="566.47 268.59 593.11 268.59 582.16 331.03 618.75 331.03 615.47 350 552.13 350 566.47 268.59"/>
  <polygon class="cls-1" points="641.89 268.59 708.28 268.59 704.78 287.56 665.26 287.56 663.12 299.3 696.77 299.3 693.26 318.27 659.73 318.27 657.59 331.03 698.8 331.03 695.52 350 627.55 350 641.89 268.59"/>
  <path d="M811.86,349.2h-11.84s-10.8-24.08-10.8-24.08h-33.62l-10.82,24.07h-10.92s37.06-79.68,37.06-79.68h2.74l38.2,79.69ZM785.98,318.11l-14.17-33.45-13.7,33.45h27.87Z"/>
  <polygon points="923.83 349.21 909.36 349.29 871.04 307.38 871.04 349.21 860.89 349.21 860.89 271.72 871.04 271.72 871.04 305.77 906.48 271.7 920.16 271.72 882.67 306.07 923.83 349.21"/>
  <path d="M1039.92,349.2h-11.84s-10.8-24.08-10.8-24.08h-33.62l-10.82,24.07h-10.92s37.06-79.68,37.06-79.68h2.74l38.2,79.69ZM1014.04,318.11l-14.17-33.45-13.7,33.45h27.87Z"/>
  <path d="M1134.56,344.91c-2.97,1.33-5.93,2.37-8.89,3.14-2.97.77-5.89,1.15-8.78,1.15h-31.93v-77.49h35.92c10.72.98,19.19,5.32,25.43,13.04,6.23,7.71,9.35,16.53,9.35,26.44,0,7.33-1.75,14-5.25,20-3.5,6-8.78,10.57-15.85,13.72M1144.48,305.44c-.61-6.07-3.17-11.45-7.7-16.13-4.52-4.68-10.05-7.68-16.59-9.01h-25.31v60.52h21.78c8.59,0,15.43-3.14,20.53-9.42,5.09-6.28,7.64-13.44,7.64-21.47,0-1.54-.11-3.04-.34-4.5"/>
  <polygon points="1252.01 349.21 1206.17 349.21 1206.17 271.72 1252.01 271.72 1252.01 280.1 1216.32 280.1 1216.32 303.03 1252.01 303.03 1252.01 310.99 1216.32 310.99 1216.32 340.83 1252.01 340.83 1252.01 349.21"/>
  <polygon points="1366.04 349.21 1320.2 349.21 1320.2 271.72 1366.04 271.72 1366.04 280.1 1330.35 280.1 1330.35 303.03 1366.04 303.03 1366.04 310.99 1330.35 310.99 1330.35 340.83 1366.04 340.83 1366.04 349.21"/>
  <polygon points="1507.32 349.21 1496.26 349.21 1487.02 290.67 1460.18 351.32 1457.27 351.29 1431.01 290.38 1420.96 349.22 1410.51 349.21 1427.27 269.52 1430.8 269.52 1459.65 334.02 1487.93 269.52 1491.47 269.52 1507.32 349.21"/>
  <rect x="1566.84" y="271.72" width="9.92" height="77.49"/>
  <path d="M1724.09,349.2h-11.84s-10.8-24.08-10.8-24.08h-33.62l-10.82,24.07h-10.92s37.06-79.68,37.06-79.68h2.74l38.2,79.69ZM1698.21,318.11l-14.17-33.45-13.7,33.45h27.86Z"/>
</svg>