<?xml version="1.0" encoding="UTF-8"?>
<svg id="Layer_1" data-name="Layer 1" xmlns="http://www.w3.org/2000/svg" viewBox="0 0 1660.64 357.31">
  <defs>
    <style>.cls-1{fill:#b3945d;}</style>
  </defs>
  <polygon fill="white" points="153.51 334.86 81.6 273.09 130.92 70.25 161.81 64.26 0 64.26 34.57 1.1 335.14 1.1 288.12 63.79 210.21 63.79 153.51 334.86"/>
  <polygon fill="white" points="204.37 218.69 271.99 125.26 398.61 125.26 385.39 59.49 350.66 112.35 278.44 112.35 358.19 1.1 449.01 1.1 493.73 183.65 490.5 215 419.51 215 408.44 176.28 322.7 176.28 292.73 218.69 204.37 218.69"/>
  <polygon fill="white" points="524 1.1 601.75 1.1 577.47 156.61 664.75 156.61 655.53 214.69 497.26 214.69 524 1.1"/>
  <polygon fill="white" points="685.73 79.01 666.14 214.69 861.14 214.69 868.51 155.99 748.19 155.99 751.42 130.41 844.77 130.41 852.61 79.01 685.73 79.01"/>
  <polygon fill="white" points="697.48 1.1 886.95 1.1 877.5 61.49 689.19 61.49 697.48 1.1"/>
  <polygon fill="white" points="874.05 214.69 904.7 1.1 990.22 1.1 1059.13 111.28 1074.35 1.1 1145.11 1.1 1112.84 214.69 1041.62 214.69 960.71 88 943.19 214.69 874.05 214.69"/>
  <polygon fill="white" points="1383.56 0 1453.45 0 1415.84 213.52 1345.95 213.52 1383.56 0"/>
  <path fill="white" d="M1344.05,33.56c-8.32-11.74-19.62-19.99-33.89-24.73-6.94-2.56-14.77-4.49-23.48-5.77-8.72-1.28-18.13-1.92-28.24-1.92h-92.45l-8.8,49.75h82.52c16.45,0,28.14,2.62,35.08,7.85,6.94,5.23,10.4,13.97,10.4,26.21,0,5.92-.59,12.73-1.78,20.43-6.94,39.68-27.05,59.52-60.35,59.52h-15.75l17.67-99.65h-70.33l-26.41,149.4h91.86c22.79,0,43.65-3.75,62.58-11.25,18.92-7.5,34.14-19.35,45.63-35.54,12.49-17.18,21.11-38.79,25.86-64.85l1.49-11.25.89-14.22c0-17.57-4.16-32.23-12.48-43.98"/>
  <path fill="white" d="M1648.15,33.56c-8.32-11.74-19.62-19.99-33.89-24.73-6.94-2.56-14.77-4.49-23.48-5.77-8.72-1.28-18.13-1.92-28.24-1.92h-92.45l-8.8,49.75h82.52c16.45,0,28.14,2.62,35.08,7.85,6.94,5.23,10.4,13.97,10.4,26.21,0,5.92-.59,12.73-1.78,20.43-6.94,39.68-27.05,59.52-60.35,59.52h-15.75l17.67-99.65h-70.33l-26.41,149.4h91.86c22.79,0,43.65-3.75,62.58-11.25,18.92-7.5,34.14-19.35,45.63-35.54,12.49-17.18,21.11-38.79,25.86-64.85l1.49-11.25.89-14.22c0-17.57-4.16-32.23-12.48-43.98"/>
  <path fill="white" d="M1073.01,282.42h39.9l2.03-10.65c.22-1.35-.09-2.56-.93-3.64-.85-1.07-1.94-1.61-3.3-1.61h-55.28l5.58-27.56h72.02c3.04,0,5.89.65,8.54,1.95,2.65,1.3,4.87,3.04,6.68,5.24,1.8,2.2,3.1,4.71,3.89,7.52.79,2.82.85,5.75.17,8.79l-9.13,43.61h-55.45c-.9,0-1.72.28-2.45.85-.73.57-1.21,1.3-1.44,2.2l-4.06,20.62h63.39l-5.41,27.55h-99.06l11.16-55.79c.56-2.82,1.55-5.38,2.96-7.69,1.41-2.31,3.13-4.31,5.16-6,2.03-1.69,4.34-3.02,6.93-3.97,2.59-.96,5.3-1.44,8.11-1.44"/>
  <path fill="white" d="M1262.17,238.98c3.04,0,5.89.65,8.54,1.95,2.65,1.3,4.87,3.04,6.68,5.24,1.8,2.2,3.1,4.71,3.89,7.52.79,2.82.85,5.75.17,8.79l-15.72,78.95c-.9,4.73-3.19,8.57-6.85,11.5-3.66,2.93-7.86,4.39-12.6,4.39h-66.94c-3.16,0-6.06-.65-8.71-1.94-2.65-1.29-4.85-3.04-6.59-5.24-1.75-2.2-3.02-4.73-3.8-7.61-.79-2.87-.9-5.83-.34-8.88l15.89-78.78c.9-4.73,3.16-8.56,6.76-11.5,3.61-2.93,7.78-4.4,12.51-4.4h67.11ZM1198.11,328.24c.79,1.02,1.8,1.52,3.04,1.52h28.23c2.03,0,3.32-1.07,3.89-3.21l10.99-55.28c.22-1.24-.06-2.34-.85-3.3-.79-.96-1.8-1.44-3.04-1.44h-28.23c-.91,0-1.72.31-2.45.93-.73.62-1.21,1.38-1.44,2.28l-10.99,55.28c-.23,1.24.05,2.31.84,3.21"/>
  <path fill="white" d="M1323.03,282.42h39.9l2.03-10.65c.22-1.35-.09-2.56-.93-3.64-.85-1.07-1.94-1.61-3.3-1.61h-55.28l5.58-27.56h72.02c3.04,0,5.89.65,8.54,1.95,2.65,1.3,4.87,3.04,6.68,5.24,1.8,2.2,3.1,4.71,3.89,7.52.79,2.82.85,5.75.17,8.79l-9.13,43.61h-55.45c-.9,0-1.72.28-2.45.85-.73.57-1.21,1.3-1.44,2.2l-4.06,20.62h63.39l-5.41,27.55h-99.06l11.16-55.79c.56-2.82,1.55-5.38,2.96-7.69,1.41-2.31,3.13-4.31,5.16-6,2.03-1.69,4.34-3.02,6.93-3.97,2.59-.96,5.3-1.44,8.11-1.44"/>
  <path fill="white" d="M1523.53,238.98l-5.41,27.56h-55.95c-.91,0-1.72.31-2.45.93-.73.62-1.21,1.38-1.44,2.28l-2.53,12.68h39.73c3.04,0,5.86.65,8.45,1.94,2.59,1.3,4.79,3.02,6.59,5.16,1.8,2.14,3.1,4.59,3.89,7.36.79,2.76.9,5.66.34,8.71l-7.44,36.01c-.9,4.62-3.16,8.4-6.76,11.33-3.61,2.93-7.78,4.39-12.51,4.39h-58.66c-3.16,0-6.06-.65-8.71-1.94-2.65-1.29-4.85-3.04-6.59-5.24-1.75-2.2-3.02-4.73-3.8-7.61-.79-2.87-.9-5.83-.34-8.88l15.89-78.78c.9-4.73,3.16-8.56,6.76-11.5,3.61-2.93,7.78-4.4,12.51-4.4h78.44ZM1448.13,328.24c.79,1.02,1.8,1.52,3.04,1.52h19.95c2.03,0,3.32-1.07,3.89-3.21l3.21-15.72c.22-1.24-.06-2.34-.85-3.3-.79-.96-1.8-1.44-3.04-1.44h-23.33l-3.72,18.93c-.23,1.24.05,2.31.84,3.21"/>
  <path class="cls-1" d="M272.52,237.28h57.34c17.09,0,28.94,2.16,35.57,6.49,6.63,4.33,9.94,10.65,9.94,18.98,0,8.98-2.16,16.9-6.49,23.74-4.33,6.85-10.71,11.31-19.14,13.39,6.24,2.52,10.35,4.93,12.32,7.23,2.3,2.19,3.45,6.41,3.45,12.65,0,2.85-.33,6.74-.98,11.67l-1.64,9.2-1.31,8.05c.33,2.41,1.42,3.61,3.29,3.61l-.66,3.45h-39.1l-.16-4.27c0-3.07.33-7.06.99-11.99l1.31-13.31c0-5.37-1.7-8.68-5.09-9.94-3.4-1.26-9.59-1.89-18.57-1.89h-5.75l-7.39,41.4h-38.77l20.86-118.46ZM306.53,264.88l-4.27,23.49h16.43c11.83,0,18.24-3.83,19.22-11.5.33-2.19.03-4.19-.9-6-.93-1.81-2.55-3.26-4.85-4.35-2.3-1.09-4.66-1.64-7.07-1.64h-18.57Z"/>
  <path class="cls-1" d="M434.35,237.28h39.6l21.52,118.46h-38.61l-1.97-15.77h-38.77l-7.06,15.77h-37.79l63.09-118.46ZM427.95,315.32h24.48l-4.76-42.39-19.72,42.39Z"/>
  <path class="cls-1" d="M576.79,237.28h38.94l-12.82,73.6c-3.18,17.42-9.86,29.79-20.04,37.13-4.71,3.51-10.02,6.22-15.94,8.13-5.91,1.92-12.05,2.88-18.4,2.88-27.49,0-41.24-11.28-41.24-33.84,0-1.42.05-2.96.17-4.6.11-1.64.38-3.86.82-6.65.44-2.79.71-4.52.82-5.18.66-1.97,1.09-3.45,1.31-4.44h34.67l-2.3,15.12c0,7.12,2.57,10.68,7.72,10.68,3.06,0,5.75-1.32,8.05-3.94,2.3-2.63,3.78-5.91,4.44-9.86l13.8-79.03Z"/>
  <path class="cls-1" d="M671.76,237.28h39.6l21.52,118.46h-38.61l-1.97-15.77h-38.77l-7.06,15.77h-37.79l63.09-118.46ZM665.35,315.32h24.48l-4.76-42.39-19.72,42.39Z"/>
  <polygon class="cls-1" points="767.7 237.28 806.48 237.28 790.54 328.13 843.77 328.13 839.01 355.73 746.84 355.73 767.7 237.28"/>
  <polygon class="cls-1" points="877.45 237.28 974.06 237.28 968.96 264.88 911.46 264.88 908.34 281.96 957.3 281.96 952.21 309.57 903.41 309.57 900.29 328.13 960.26 328.13 955.49 355.73 856.59 355.73 877.45 237.28"/>
</svg>
