<svg xmlns="http://www.w3.org/2000/svg" viewBox="0 0 32 32">
  <rect width="32" height="32" rx="6" fill="#0a0a0a"/>
  <svg x="2" y="2.5" width="28" height="27" viewBox="0 0 479.08 461.79">
    <path fill="none" stroke="#fff" stroke-miterlimit="10" stroke-width="4" d="M227.09,3.74c125.45-6.88,232.72,89.24,239.6,214.69,6.88,125.45-89.22,232.72-214.67,239.62-125.46,6.9-232.75-89.22-239.64-214.68C5.5,117.9,101.63,10.62,227.09,3.74"/>
    <g fill="#fff">
      <path d="M454.75,211.7l.49.13c.82.56,1,.74,1.14,1.92.56,4.48.36,9.38.47,13.91-1.46.19-2.33.24-3.72.8-3.91,2.43-11.66-.66-15.37-2.4-1.6,4.37-3.56,8.61-5.87,12.65-5.12-2.24-10.07-1.42-15.26.08,2.24-5.25,3.91-11.75,5.18-17.3,6.17.39,10.09,1.82,15.42,4.71,1.56-4.53,1.9-9.53,1.99-14.28,3.29,1.48,13.48,3.42,15.53-.24"/>
      <path d="M24.63,209.72c.11.9.13,1.61.5,2.45,3.91,3.07,11.15,1.3,15.32-.52-.59,4.83.26,9.04.56,13.78.03.47-.39,1.01-.77,1.25-4.95,2.45-9.81,2.73-14.84,2.27l-.13-.6c-1.02-.35-2.06-.63-3.09-.93-.39-4.62-.14-11.24,1.71-15.61.37-.86.41-.84.68-1.85l.06-.23Z"/>
      <path d="M435.68,195.24c-5.54-3.4-9.43-4.34-15.81-4.49,2.08,5.86,2.31,8.85,2.99,14.99-6.33,1.45-9.8,3.59-15.24,7.09.27,6.18-.4,10.64-.89,16.73-1.86.7-2.59.97-4.2,2.25-.49-5.13-.78-11.36-.59-16.5,1.93-1.01,3.3-1.61,5.4-2.26-.18-5.41-.89-9.32-2.72-14.35,3.66-2.94,9.21-6.21,13.76-7.74.61-.21.54-.15,1-.64.59-1.94-5.21-11.09-6.79-12.77-5.12,3.06-8.89,5.82-14.67,7.64,1.47,2.28,6.22,10.32,6.66,12.64-.43,1.18-2.89,2.04-4.26,3.21l-.2-.36c-1.83-3.24-3.81-12.56-5.05-16.78-1.85-6.36-4.14-12.59-6.85-18.63-19.62-44.32-57.96-77.59-104.6-90.78-15.32-4.34-33.78-6.73-49.74-5.83h0c-35.6,1.1-69.83,13.97-97.34,36.58-4.04,3.33-7.58,7.11-11.34,10.69-18.39,17.45-31.55,39.65-39.79,63.52-2.33,6.74-3.59,14.99-6.2,21.53-1.51-1.06-3.23-1.69-4.94-2.4,1.61-4.44,4.28-9.22,6.66-13.34-5.01-1.77-10.12-5.05-14.73-7.83-1.5,2.07-6.6,10.35-6.56,12.7,1.08,1.32,1.93.67,3.22,1.4,3.71,2.09,8.17,4.31,11.42,6.99-1.05,2.79-2.56,11.06-3.09,14.21,1.92.85,4.34,2,6.29,2.65.06,5.3-.13,10.87-.24,16.18-1.78-1.36-2.33-1.41-4.5-1.62,2.51,9.84,5.42,18.02,6.62,28.16.73,6.17,2.82,13.98,4.62,19.91,11.87,38.75,37.71,71.71,72.51,92.48,37.01,22.02,81.24,28.45,122.99,17.88,10.11-2.59,21.23-6.48,30.61-11.16,38.81-18.73,68.6-52.1,82.83-92.78,1.88-5.45,3.83-11.35,5.02-16.97,2.14-10.1,3-20.22,6.35-30.08.83-2.44,1.32-5.56,2.89-7.76,3.08-3.68,10.06-6.5,14.39-7.95.97-4.82,1.18-11.04,1.37-15.98,6.26.94,10.7,3.13,16.25,6.03-1.05-4.62-2-12.48-3.49-16.49Z"/>
    </g>
  </svg>
</svg>
